<?xml version="1.0" encoding="utf-8"?>
<!-- Generator: Adobe Illustrator 27.5.0, SVG Export Plug-In . SVG Version: 6.00 Build 0)  -->
<svg version="1.1" id="Layer_2" xmlns="http://www.w3.org/2000/svg" xmlns:xlink="http://www.w3.org/1999/xlink" x="0px" y="0px"
	 viewBox="0 0 3400 2000" style="enable-background:new 0 0 3400 2000;" xml:space="preserve">
<rect style="fill:#FFFFFF;" width="3400" height="2000"/>
<g>
	<path style="fill:#BDE377;" d="M972.178,1385.787c0,0,14.244,72.7,84.335,147.879c40.865,43.831,188.112,12.514,257.134,130.797
		c60.615,103.877,50.331,256.874,50.331,256.874l341.725-199.484c0,0,7.021-143.971-83.974-240.217
		c-61.626-65.184-202.631-32.434-281.749-110.876c-35.862-35.556-84.499-105.907-84.499-105.907L972.178,1385.787z"/>
	<path style="fill:#6BA638;" d="M997.311,1398.478c0,0,17.683,60.283,80.569,120.098c36.904,35.102,201.957,13.087,260.918,113.113
		c51.781,87.843,53.472,237.132,53.472,237.132l291.877-167.07c0,0-8.944-134.862-86.812-216.174
		c-52.736-55.069-201.332-31.168-269.049-97.428c-30.694-30.033-74.664-102.801-74.664-102.801L997.311,1398.478z"/>
	<path style="fill:#BDE377;" d="M1021.321,1409.71c0,0,12.585,42.829,72.528,95.671c54.269,47.84,204.166,8.627,258.735,109.514
		c47.923,88.599,57.274,215.251,57.274,215.251l249.648-142.859c0,0-1.764-104.395-72.72-187.062
		c-48.055-55.985-218.626-40.107-277.394-110.051c-28.441-33.851-57.782-85.14-57.782-85.14L1021.321,1409.71z"/>
	<path style="fill:#6BA638;" d="M1277.231,1564.232c-28.365-12.057-56.366-41.165-3.901-75.565
		c60.207-39.477,136.122-50.157,191.618-40.899c55.497,9.257,88.593,49.744,19.817,92.578
		c-68.776,42.833-130.817,55.828-156.3,49.916C1302.982,1584.351,1277.231,1564.232,1277.231,1564.232z"/>
	<path style="fill:#6BA638;" d="M1236.684,1411.903c3.554,10.435-3.508,22.281-15.772,26.458
		c-12.265,4.176-25.088-0.898-28.642-11.334s3.508-22.281,15.772-26.458C1220.307,1396.393,1233.13,1401.467,1236.684,1411.903z"/>
	<path style="fill:#6BA638;" d="M1554.108,1641.938c4.314,12.67-2.131,26.326-14.396,30.503s-25.705-2.708-30.019-15.378
		s2.13-26.326,14.395-30.503S1549.794,1629.268,1554.108,1641.938z"/>
	<path style="fill:#BDE377;" d="M1442.526,1472.257l10.208-6.389l-17.786-8.678l-11.286,7.739
		c-9.457-2.471-19.163-3.583-26.26-3.129c-17.825,1.138-60.839,13.882-49.433,32.049c9.848,15.686,45.967,27.136,15.167,41.362
		c-14.751,6.813-42.368-3.957-43.129-15.874c-0.569-8.913,6.551-14.623,6.551-14.623l-13.548-11.078c0,0-35.512,25.006-5.334,50.873
		c0.03,0.026,0.062,0.048,0.091,0.073l-11.827,8.111l16.579,8.521l11.513-7.206c20.57,7.943,47.231,6.844,65.017-2.688
		c20.745-11.118,16.288-33.009,4.392-41.664c-11.896-8.654-27.112-18.228-16.058-25.887c11.054-7.658,31.302-10.448,43.05-2.55
		c11.749,7.899,3.842,21.61,3.842,21.61l20.505,8.538c0,0,16.818-14.281,9.323-28.507
		C1451.956,1478.789,1447.782,1475.234,1442.526,1472.257z"/>
</g>
<g>
	<path style="fill:#A8C469;" d="M368.71,1360.681c10.135,3.675,44.894,69.299,179.108,113.645
		c60.376,19.949,178.309-11.035,178.309-11.035l196.13,274.696c0,0-57.515,24.446-135.435,28.604
		c-181.322,9.673-252.702-46.303-252.702-46.303l-45.981-41.649L368.71,1360.681z"/>
	<path style="fill:#639334;" d="M445.915,1444.89c0,0,74.364,47.322,129.519,51.59c45.204,3.498,144.688-14.04,144.688-14.04
		l168.805,241.278c0,0-130.213,32.615-193.927,22.802c-199.158-30.673-206.074-72.97-206.074-72.97l-9.139-17.782
		c0,0,87.295,60.938,209.116,71.408c94.729,8.142,168.729-17.203,168.729-17.203l-144.713-209.816c0,0-84.4,16.29-134.228,12.315
		c-49.828-3.976-132.538-47.831-132.538-47.831L445.915,1444.89z"/>
	<path style="fill:#639334;" d="M406.804,1451.82c26.563,14.629,77.503,38.096,105.683,71.354
		c19.256,22.726,53.112,88.183,48.295,115.252c-3.282,18.443-20.329,40.137-56.97,22.697
		c-36.642-17.438-71.585-41.531-71.585-41.531L406.804,1451.82z"/>
	<path style="fill:#A8C469;" d="M459.631,1507.495l-3.193-10.95l18.044,5.07l3.104,12.585c8.244,4.21,15.808,9.539,20.541,14.332
		c11.887,12.036,34.274,48.149,14.762,53.809c-16.847,4.887-49.602-9.774-36.786,19.692c6.138,14.112,32.453,23.896,40.5,15.949
		c6.018-5.943,4.582-14.468,4.582-14.468l16.56,0.703c0,0,9.356,40.057-28.282,39.334c-0.037-0.001-0.074-0.005-0.111-0.005
		l3.253,13.187l-17.093-4.42l-3.601-12.349c-19.549-7.345-37.71-24.92-44.281-42.866c-7.664-20.933,9.28-33.604,23.146-32.229
		c13.865,1.376,30.656,4.192,27.665-8.188c-2.991-12.38-15.551-27.11-28.835-28.928c-13.285-1.816-16.333,12.861-16.333,12.861
		l-19.879-6.883c0,0-2.895-20.695,11.368-26.032C448.848,1506.172,454.039,1506.288,459.631,1507.495z"/>
	<path style="fill:#BDE377;" d="M251.084,1058.865l252.32,244.746c0,0-41.758,125.613-36.835,193.871
		c12.109,167.904,67.923,223.084,67.923,223.084s-64.007-35.724-135.902-134.945c-109.521-151.147-170.822-280.495-170.822-280.495
		s-15.294-50.471-11.018-102.076S251.084,1058.865,251.084,1058.865z"/>
	<path style="fill:#6BA638;" d="M502.059,1697.268c0,0-48.188-62.384-58.54-167.902c-6.046-61.617,34.001-214.241,34.001-214.241
		l-217.649-221.503c0,0-20.193,68.038-27.035,110.006c-10.34,63.423,4.194,121.068,4.194,121.068l16.721,31.568
		c0,0-12.133-41.717-4.334-124.623c2.994-31.825,22.715-97.553,23.311-95.975c0.596,1.579,182.487,187.271,182.487,187.271
		s-29.439,146.101-27.982,195.137c2.826,95.131,49.435,158.11,49.435,158.11L502.059,1697.268z"/>
	<path style="fill:#6BA638;" d="M436.087,1633.097c0,0-6.575-23.625-36.748-86.563c-23.273-48.547-65.313-91.384-76.971-93.599
		c-7.611-1.446-9.994,0.772-10.732,2.488c24.294,39.462,53.61,84.222,87.563,131.079
		C411.842,1603.949,424.238,1619.426,436.087,1633.097z"/>
	<path style="fill:#639334;" d="M705.888,1639.036c-9.725,6.755-25.374,1.051-34.953-12.741c-9.58-13.791-9.462-30.447,0.263-37.202
		c9.725-6.755,25.374-1.05,34.953,12.741C715.73,1615.626,715.612,1632.281,705.888,1639.036z"/>
	<path style="fill:#6BA638;" d="M359.796,1358.515c-9.755,8.475-26.591,5.067-37.603-7.609
		c-11.012-12.677-12.031-29.823-2.276-38.298c9.755-8.474,26.591-5.067,37.603,7.609
		C368.533,1332.894,369.551,1350.04,359.796,1358.515z"/>
</g>
<g>
	<path style="fill:#BDE377;" d="M1931.82,810.548c0,0-75.783,73.885-95.241,166.884c-19.459,93,5.372,299.422-25.267,369.022
		c-30.64,69.6-68.178,134.921-68.178,134.921l356.515,172.741c0,0,69.876-161.75,77.108-235.504
		c10.069-102.686-35.335-236.545-11.834-303.99c27.885-80.03,115.093-223.067,115.093-223.067L1931.82,810.548z"/>
	<path style="fill:#6BA638;" d="M1942.29,834.304c0,0-58.604,75.946-76.241,161.961c-17.639,86.015-1.61,275.579-27.852,340.272
		c-26.242,64.692-57.995,125.585-57.995,125.585l299.598,148.316c0,0,47.384-96.043,67.619-194.703
		c16.359-79.767-28.171-240.381-9.607-303.598c18.563-63.218,93.441-202.853,93.441-202.853L1942.29,834.304z"/>
	<path style="fill:#BDE377;" d="M2112.401,1106.509c17.604-73.808,82.886-182.893,82.886-182.893l-237.654-64.796
		c0,0-47.093,51.389-70.458,144.843c-20.286,81.143-3.62,272.005-26.772,333.962c-23.151,61.956-50.784,120.428-50.784,120.428
		l254.394,111.721c0,0,38.232-73.613,59.11-159.471C2147.106,1311.67,2097.861,1167.469,2112.401,1106.509z"/>
	<path style="fill:#6BA638;" d="M1870.238,1164.829c-0.794-54.093,30.604-82.694,111.58-66.421
		c93.126,18.715,147.228,76.467,146.316,114.188s-7.055,118.14-119.106,96.088c-74.524-14.667-143.167-73.455-143.105-99.847
		S1870.238,1164.829,1870.238,1164.829z"/>
	<path style="fill:#BDE377;" d="M2088.017,1237.143l2.892-22.462l-14.226-2.701c2.517-31.79-6.78-54.18-38.426-60.912
		c-42.512-9.044-52.055,23.635-62.494,39.22c-10.44,15.584-14.774,26.95-26.779,23.909c-12.006-3.041-18.304-10.363-16.497-27.135
		c3.142-29.152,22.014-22.728,22.014-22.728l3.873-27.999c0,0-44.176-10.849-54.362,35.39l-13.221-2.588l-2.529,18.687l13.759,4.457
		c0.682,27.442,15.895,43.949,33.482,49.506c40.616,12.834,54.044-15.772,61.884-31.479c9.374-18.781,17.802-30.78,30.336-28.354
		c16.501,3.193,22.384,15.181,17.595,34.524c-6.914,27.936-34.126,20.026-34.126,20.026l-4.03,26.242
		c0,0,54.436,20.189,66.367-29.447L2088.017,1237.143z"/>
	<path style="fill:#6BA638;" d="M2060.466,987.697c-4.992,11.059-18.471,15.766-30.105,10.514
		c-11.635-5.252-17.02-18.475-12.026-29.534c4.991-11.059,18.471-15.766,30.104-10.514
		C2060.073,963.416,2065.457,976.638,2060.466,987.697z"/>
	<path style="fill:#6BA638;" d="M1977.694,1451.994c-4.992,11.059-18.471,15.766-30.105,10.514
		c-11.634-5.252-17.019-18.475-12.026-29.533s18.471-15.767,30.104-10.515C1977.302,1427.713,1982.687,1440.935,1977.694,1451.994z"
		/>
</g>
<g>
	<path style="fill:#BDE377;" d="M2279.004,1466.599l338.293-120.995c0,0,25.688,38.859,45.683,50.62
		c41.978,24.692,228.521,86.601,301.253,130.872c141.984,86.426,274.092,212.359,274.092,212.359l-196.309,100.007l-286.438-7.408
		c0,0-93.834-130.872-171.616-185.197c-105.988-74.023-233.039-90.062-254.337-106.179
		C2283.942,1506.107,2279.004,1466.599,2279.004,1466.599z"/>
	<path style="fill:#6BA638;" d="M2932.132,1535.738c-64.682-38.405-227.123-96.633-266.684-113.587
		c-25.928-11.112-51.855-53.09-51.855-53.09l-293.845,108.648c0,0-2.47,28.398,58.599,58.108
		c21.17,10.301,131.929,27.896,226.187,92.111c69.173,47.126,188.084,195.481,188.084,195.481l212.358,4.938l192.605-96.303
		C3197.581,1732.047,3058.401,1610.713,2932.132,1535.738z M2979.049,1813.534l-156.801,3.704c0,0-108.615-133.132-177.789-180.259
		c-94.257-64.216-185.697-96.023-208.654-101.241c-81.487-18.52-88.896-50.62-88.896-50.62l261.745-93.833
		c0,0,32.102,43.213,97.537,66.671c53.664,19.238,163.705,56.867,230.879,100.006c134.576,86.426,221.002,169.146,221.002,169.146
		L2979.049,1813.534z"/>
	<path style="fill:#9EAF61;" d="M2755.578,1832.054c0,0,59.263-16.051,83.955-30.866c24.693-14.815,90.13-54.324,90.13-54.324
		s31.924,44.888,49.386,56.794c27.162,18.52,62.967,35.805,62.967,35.805L2755.578,1832.054z"/>
	<path style="fill:#639334;" d="M2799.439,1832.625c0,0,28.53-4.121,62.133-20.605c34.508-16.929,62.224-38.9,62.224-38.9
		s11.64,26.22,30.343,39.217c26.146,18.17,61.816,26.311,61.816,26.311l-51.038-1.585c0,0-17.085-6.132-26.629-13.631
		c-8.876-6.975-20.288-22.19-20.288-22.19s-23.287,14.127-33.715,19.62c-21.127,11.129-33.808,13.665-33.808,13.665
		L2799.439,1832.625z"/>
	<path style="fill:#6BA638;" d="M2867.931,1513.515l-30.866-14.815c-38.274-14.815-100.007-17.285-165.443,18.52
		c-51.09,27.955-98.771,64.202-55.559,108.648c50.515,51.959,113.21,55.748,187.666,18.521
		C2895.093,1598.705,2912.377,1528.331,2867.931,1513.515z"/>
	<path style="fill:#BDE377;" d="M2837.636,1530.462l13.31-6.988l-21.318-12.481l-14.778,8.568c-11.537-3.969-25-8.184-33.867-8.612
		c-25.518-1.234-79.863,15.916-67.382,39.605c10.776,20.453,58.957,35.97,19.277,50.77c-19.004,7.088-52.36-8.926-52.183-23.832
		c0.134-11.146,9.535-17.582,9.535-17.582l-15.817-15.066c0,0-46.562,27.77-11.442,62.815c0.034,0.034,0.071,0.066,0.106,0.1
		l-15.486,8.978l19.83,12.173l15.01-7.882c24.854,11.828,56.359,17.05,85.793,3.514c29.333-13.49,25.629-39.418,4.785-52.163
		c-15.666-9.581-32.023-25.249-17.542-33.737c14.482-8.489,39.837-9.909,53.824,0.892c21.079,16.277,2.741,27.261,2.741,27.261
		l22.043,17.826c0,0,24.955-21.451,16.97-39.864C2848.757,1539.482,2843.897,1534.664,2837.636,1530.462z"/>
	<path style="fill:#6BA638;" d="M2982.098,1693.097c6.763,12.647-0.729,29.837-16.732,38.394s-34.459,5.239-41.222-7.408
		c-6.763-12.648,0.729-29.838,16.733-38.395C2956.881,1677.131,2975.336,1680.448,2982.098,1693.097z"/>
	<path style="fill:#6BA638;" d="M2595.516,1469.282c4.01,9.248-3.993,21.624-17.876,27.643c-13.882,6.018-28.386,3.399-32.395-5.849
		s3.994-21.623,17.876-27.642C2577.004,1457.416,2591.507,1460.035,2595.516,1469.282z"/>
</g>
<g>
	<path style="fill:#9EAF61;" d="M2902.387,239.675c27.639,2.826,70.819,17.022,128.576,175.838
		c63.096,173.5,297.318,300.524,297.318,300.524l-383.487-17.874c0,0-114.791-44.936-183.38-183.512
		c-68.588-138.576-91.443-285.927-91.443-285.927L2902.387,239.675L2902.387,239.675z"/>
	<path style="fill:#639334;" d="M3058.617,499.623c-59.213-86.183-72.521-169.659-106.123-210.629
		c-38.338-46.744-86.945-43.605-86.945-43.605l-6.907,4.854c18.312,0.268,43.788,8.674,74.403,39.773
		c25.242,25.639,65.691,158.776,113.58,224.778c34.172,47.096,178.73,168.924,178.73,168.924l-285.078-17.103
		c0,0-113.994-71.607-165.155-186.432c-15.435-34.643-43.544-121.027-43.544-121.027l57.449-59.989l-73.301,51.515
		c0,0,14.004,74.629,55.29,153.998c64.398,123.8,170.963,177.866,170.963,177.866l328.925,16.141
		C3270.904,698.688,3122.731,592.939,3058.617,499.623z"/>
	<path style="fill:#BDE377;" d="M2519.278,311.831c0,0,15.717-29.984,49.22-54.152c51.173-36.915,103.889-37.546,103.889-37.546
		l230,19.542c0,0-32.462-3.254-65.994,30.275c-41.237,41.234-45.851,107.02-45.851,107.02L2519.278,311.831z"/>
	<path style="fill:#639334;" d="M2759.59,455.774c18.965,65.14,70.439,73.104,128.368,71.783
		c102.777-2.344,135.096-53.27,115.876-100.505c-24.607-60.479-78.943-58.761-137.564-52.106
		C2796.199,382.899,2743.466,400.395,2759.59,455.774z"/>
	<path style="fill:#9EAF61;" d="M2971.335,452.801l-3.912-19.603l-12.661,1.75c-6.856-27.3-20.944-43.407-49.312-40.118
		c-38.108,4.418-36.878,34.443-41.217,50.421c-4.34,15.979-4.761,26.708-15.66,27.548s-18.231-3.509-21.447-18.046
		c-5.591-25.27,12.006-25.216,12.006-25.216l-4.652-24.511c0,0-40.009,3.378-35.495,44.925l-11.788,1.562l3.152,16.344l12.765-0.15
		c8.306,22.762,25.684,32.28,41.961,31.971c37.592-0.714,40.759-28.427,42.889-43.775c2.547-18.352,6.213-30.764,17.381-32.268
		c14.703-1.98,23.002,6.388,24.45,23.918c2.091,25.316-22.899,26.37-22.899,26.37l4.025,23.086c0,0,51.224,1.543,47.211-43.339
		L2971.335,452.801z"/>
	<path style="fill:#6BA638;" d="M2857.615,235.969c0,0-24.341-1.097-58.175,32.04c-15.786,15.46-38.956,65.279-38.956,65.279
		l-183.928-38.318c0,0,12.623-23.647,40.605-42.564c27.982-18.917,87.893-29.492,87.893-29.492l-20.174-1.707l-0.076-0.017
		c0,0-57.785,11.946-79.952,25.901c-42.308,26.633-60.091,53.98-60.091,53.98l228.344,53.279c0,0,16.875-54.877,33.299-75.936
		c28.995-37.175,70.56-40.799,70.56-40.799L2857.615,235.969z"/>
	<path style="fill:#639334;" d="M3011.691,589.582c0.486,9.267-15.303,17.63-35.268,18.678
		c-19.964,1.048-36.543-5.614-37.029-14.881s15.303-17.629,35.268-18.678C2994.626,573.652,3011.205,580.315,3011.691,589.582z"/>
	<path style="fill:#6BA638;" d="M2819.682,232.527l-65.754-5.587c5.547,5.532,15.516,10.468,27.438,12.958
		C2799.684,243.721,2816.1,240.415,2819.682,232.527z"/>
</g>
<g>
	<path style="fill:#9EAF61;" d="M1291.496,701.254l-308.679-25.342l-31.748,4.942c-55.05,10.428-98.624,26.115-161.048,99.397
		c-60.723,71.285-78.707,246.378-78.707,246.378s74.115-43.126,191.574-46.547c117.458-3.42,161.183,14.857,161.183,14.857
		s-5.263-117.37,41.907-178.401C1164.749,740.497,1291.496,701.254,1291.496,701.254z"/>
	<g>
		<path style="fill:#639334;" d="M741.599,989.639l1.836-13.983c0.147-1.122,3.721-27.905,13.287-64.105
			c12.898-48.811,29.804-89.393,50.247-120.62c41.263-63.03,117.096-102.412,225.392-117.054l2.66,12.411
			c-102.338,13.836-173.482,57.511-211.452,115.511c-36.091,55.13-52.641,131.408-58.195,162.458
			c26.375-5.447,83.205-16.624,119.212-19.624c52.092-4.34,116.881,3.92,142.006,7.618c2.234-20.391,8.668-66.094,24.417-105.716
			c17.897-45.028,47.396-72.976,68.991-88.491c23.507-16.89,42.852-23.108,43.664-23.364l5.975,18.92
			c-0.154,0.049-17.652,5.759-38.689,21.01c-27.966,20.275-48.658,46.939-61.502,79.253
			c-19.406,48.821-24.038,109.916-24.083,110.527l-0.792,10.876l-10.753-1.812c-0.847-0.143-85.41-14.229-147.586-9.048
			c-45.841,3.819-130.009,22.053-130.854,22.237L741.599,989.639z"/>
	</g>
	<path style="fill:#639334;" d="M1003.402,684.088c-31.093,5.15-74.567,63.019-0.978,77.257
		c79.819,15.443,127.432-0.949,152.813-12.952c25.381-12.002-77.338-59.181-77.338-59.181L1003.402,684.088z"/>
	<path style="fill:#BDE377;" d="M951.069,680.855c0,0,71.236-13.877,190.541,78.109c76.197,58.749,210.799,244.045,210.799,244.045
		s31.686-53.026,92.312-93.342c98.503-65.504,156.051-83.754,156.051-83.754s-69.221-93.594-168.434-127.075
		C1193.076,618.095,951.069,680.855,951.069,680.855z"/>
	<path style="fill:#6BA638;" d="M1562.077,822.538l15.436-4.317l-11.475-11.19c-2.907-2.834-72.121-69.869-153.531-108.874
		c-11.87-5.687-24.437-11.068-37.256-16.115c-44.238-11.122-87.919-17.841-129.482-21.48c41.525,7.2,94.985,8.477,165.852,51.944
		c56.604,34.719,107.285,76.783,130.15,97.26c-22.04,7.881-64.725,25.569-108.213,56.972c-34.754,25.096-68.771,56.754-83.58,70.988
		c-26.414-35.559-126.816-168.709-176.75-206.381c-44.19-33.339-93.315-54.784-126.745-66.903c-0.553-0.201-0.461-0.061-1.009-0.257
		c-15.802,1.836-28.234,4.204-40.564,6.189c34.306,9.716,99.391,32.109,157.193,75.718
		c54.415,41.053,178.048,209.408,179.291,211.103l6.363,8.685l7.616-7.609c0.443-0.443,44.865-44.686,88.999-76.555
		C1502.89,839.458,1561.496,822.701,1562.077,822.538z"/>
	<path style="fill:#6BA638;" d="M1045.473,664.184c16.413,7.704,112.19,36.145,176.983,26.678
		c64.793-9.468,79.801-20.475,53.551-25.987c-26.25-5.513-52.917-9.722-112.632-9.406
		C1103.661,655.784,1045.473,664.184,1045.473,664.184z"/>
	<path style="fill:#6BA638;" d="M1386.394,788.664c-12.799,7.812-27.42,7.188-32.657-1.393c-5.237-8.581,0.893-21.87,13.691-29.682
		c12.799-7.811,27.42-7.188,32.657,1.394C1405.323,767.564,1399.193,780.854,1386.394,788.664z"/>
	<path style="fill:#639334;" d="M941.212,872.412c-14.92-1.491-26.205-10.808-25.206-20.812c1-10.003,13.905-16.904,28.825-15.413
		c14.92,1.49,26.205,10.808,25.206,20.811C969.037,867.002,956.132,873.903,941.212,872.412z"/>
</g>
<g>
	<path style="fill:#9EAF61;" d="M2404.719,459.655c-58.61-27.478-118.121-55.107-165.85-80.577l-78.275-41.378l-252.023-88.543
		l210.275,196.246c0,0,110.396,48.885,264.076,65.465c105.656,11.398,170.871,0.816,170.871,0.816
		S2460.485,485.799,2404.719,459.655z"/>
	<g>
		<path style="fill:#639334;" d="M2341.84,497.559c-29.212-3.952-61.588-9.701-93.004-18.06
			c-68.988-18.355-121.198-37.11-121.198-37.11s-36.238-29.978-54.665-46.566c-16.594-14.937-57.519-55.888-58.889-57.649
			l10.463-7.553c0.326,0.42,43.686,39.223,59.223,53.208c16.346,14.713,45.934,39.311,51.977,44.322
			c8.304,2.935,55.117,19.225,117.239,35.753c54.189,14.418,137.415,26.067,175.373,28.974
			c-39.111-10.956-108.679-41.733-133.983-53.801c-59.145-28.206-160.617-91.423-161.635-92.058l8.543-13.691
			c1.011,0.63,101.718,63.37,160.039,91.183c41.916,19.99,146.904,65.737,147.96,66.197l36.813,16.033l-40.148-0.567
			C2445.267,506.164,2399.79,505.4,2341.84,497.559z"/>
	</g>
	<path style="fill:#639334;" d="M2022.567,337.704c8.792,9.221,37.821,24.694,69.344,25.445c31.522,0.751,71.214-6.93,54.309-19.257
		C2129.314,331.565,2022.567,337.704,2022.567,337.704z"/>
	<path style="fill:#BDE377;" d="M1442.724,269.958c0,0,121.694-54.61,175.248-63.734c157.586-26.848,293.01,11.323,306.917,13.204
		c44.89,6.074,315.254,160.309,315.254,160.309s-128.281-76.952-313.809-12.234c-93.066,32.465-177.773,71.342-177.773,71.342
		L1442.724,269.958z"/>
	<path style="fill:#6BA638;" d="M2148.851,328.935c-14.433-7.935-19.209-10.802-34.981-19.304
		c-35.271-1.685-98.938-5.346-164.088,10.494c-65.051,15.816-173.655,61.059-196.805,70.84l-237.532-121.548
		c13.33-5.825,33.304-13.941,57.315-21.779c40.688-13.282,105.097-30.432,164.547-32.023
		c93.184-2.494,179.194,10.821,244.614,27.503c-1.974-1.945-6.494-4.835-24.565-12.702c-67.276-15.385-148.27-28.581-222.536-27.819
		c-62.607,0.643-126.148,12.627-168.508,26.48c-45.756,14.964-76.468,30.486-77.753,31.139l-17.165,8.728l280.823,143.701
		l4.236-1.812c1.272-0.544,127.988-54.602,197.97-71.617c67.932-16.517,121.99-17.315,155.378-15.077
		C2126.206,325.238,2139.352,327.158,2148.851,328.935z"/>
	<path style="fill:#6BA638;" d="M1968.558,236.025c-25.566-3.961-57.516-5.272-30.514,21.472
		c42.344,41.939,141.923,60.364,167.757,62.353c25.834,1.99,37.038,4.509,35.066,4.243c-1.972-0.267-38.914-20.324-81.012-43.087
		C2017.757,258.243,1968.558,236.025,1968.558,236.025z"/>
	<path style="fill:#6BA638;" d="M1759.883,269.719c14.381,8.794,22.609,21.53,18.379,28.447c-4.229,6.918-19.316,5.397-33.696-3.396
		c-14.381-8.793-22.609-21.529-18.379-28.447C1730.416,259.405,1745.503,260.926,1759.883,269.719z"/>
	<path style="fill:#639334;" d="M2200.662,415.516c15.944,5.468,27.628,13.522,26.096,17.99c-1.532,4.468-15.699,3.657-31.644-1.811
		c-15.944-5.467-27.628-13.522-26.096-17.99C2170.551,409.237,2184.719,410.048,2200.662,415.516z"/>
</g>
<g>
	<path style="fill:#BDE377;" d="M174.458,521.613c0,0,51.476-74.248,143.729-118.846c74.846-36.183,300.243-116.639,358.689-147.731
		c106.843-56.84,176.832-133.037,176.832-133.037l292.379,179.365c0,0-59.555,72.968-139.706,131.46
		c-81.171,59.237-297.242,89.332-404.014,175.227c-69.128,55.611-148.352,201.565-148.352,201.565L174.458,521.613z"/>
	<g>
		<path style="fill:#6BA638;" d="M442.828,770.244l-232.69-249.1l3.358-5.623c1.452-2.431,36.893-60.163,153.379-114.383
			c36.45-16.967,89.294-38.399,145.24-61.09c73.789-29.928,150.09-60.874,191.676-82.912
			c59.129-31.334,146.996-108.993,147.876-109.774l4.794-4.251l266.328,160.773l-6.298,7.771
			c-0.592,0.73-14.815,18.174-42.388,43.032c-25.326,22.834-67.22,56.496-122.974,87.189
			c-49.671,27.345-102.417,42.999-158.259,59.573c-78.104,23.18-158.866,47.149-229.934,105.976
			c-53.395,44.197-113.682,151.335-114.285,152.412L442.828,770.244z M232.153,519.196l207.23,221.843
			c16.8-28.599,66.039-108.619,112.446-147.033c73.81-61.095,156.306-85.579,236.085-109.257
			c54.917-16.298,106.788-31.693,154.814-58.133c83.489-45.962,135.959-98.996,153.597-118.361l-237.93-143.63
			c-19.545,16.998-92.915,79.531-146.449,107.901c-42.372,22.454-119.092,53.571-193.286,83.663
			c-55.737,22.606-108.384,43.959-144.436,60.74c-58.054,27.023-94.615,54.844-115.063,73.424
			C245.12,503.113,236.555,513.372,232.153,519.196z"/>
	</g>
	<path style="fill:#6BA638;" d="M563.258,328.502c-36.884,18.087-60.932,63.604-9.545,124.184
		c51.386,60.579,149.54,72.974,192.492,58.075c42.952-14.899,55.362-92.134,13.49-133.94
		C717.822,335.014,646.941,287.466,563.258,328.502z"/>
	<path style="fill:#6BA638;" d="M452.385,518.883c8.964,11.308,9.733,25.625,1.718,31.979c-8.015,6.354-21.78,2.339-30.744-8.968
		c-8.964-11.308-9.733-25.625-1.718-31.979C429.657,503.56,443.421,507.576,452.385,518.883z"/>
	<path style="fill:#6BA638;" d="M914.523,277.468c10.561,9.832,13.472,23.872,6.502,31.358c-6.97,7.486-21.181,5.584-31.742-4.249
		c-10.561-9.832-13.472-23.872-6.502-31.358C889.751,265.733,903.962,267.635,914.523,277.468z"/>
	<path style="fill:#BDE377;" d="M708.439,478.31l21.082-9.903l-10.33-10.603c29.274-15.592,30.228-37.68,13.601-56.077
		c-22.338-24.715-59.729-15.768-74.368-9.568c-14.638,6.199-27.89,10.133-37.733,4.158c-8.119-4.928-2.887-19.42,9.611-26.85
		c18.422-10.953,24.883-2.509,24.883-2.509l23.717-9.434c0,0-23.911-22.686-54.671-7.849l-9.917-7.715l-15.077,7.614l8.781,8.344
		c-18.182,11.93-20.477,37.276-12.168,48.752c19.187,26.502,52.958,16.098,66.009,8.684c15.605-8.865,30.072-11.021,36.397-5.768
		c19.97,16.583,9.57,26.414-7.526,34.898c-23.051,11.439-32.96-2.959-32.96-2.959l-33.283,16.814c0,0,11.216,31.487,75.061,9.017
		L708.439,478.31z"/>
</g>
<g>
	<path style="fill:#9EAF61;" d="M2920.922,1174.697c16.83,2.188,57.506,8.389,137.147-32.753
		c51.881-26.801,99.278-81.116,99.278-81.116l-399.277-78.165l-98.246,106.188L2920.922,1174.697z"/>
	<g>
		<path style="fill:#639334;" d="M2895.209,1167.426c-28.116,0.001-47.242-3.148-48.097-3.291l3.47-17.408
			c0.201,0.034,21.168,3.463,50.694,2.951c26.955-0.461,66.816-4.387,103.641-20.468c32-13.974,65.46-38.151,83.868-52.425
			c-72.998-14.122-303.561-58.736-307.769-59.701l4.681-17.168l-0.053-0.012c5.441,1.181,215.613,41.867,325.986,63.215
			l18.178,3.516l-13.592,11.615c-2.146,1.833-53.117,45.151-103.004,66.938c-40.102,17.512-83.078,21.733-112.068,22.191
			C2899.127,1167.411,2897.145,1167.426,2895.209,1167.426z"/>
	</g>
	<path style="fill:#BDE377;" d="M2333.788,677.968c0,0,57.682,61.453,71.919,134.323c7.437,38.063,15.775,117.456,36.836,203.494
		c19.296,78.824,77.182,110.997,77.182,110.997l401.63,47.953c0,0-83.032-31.103-122.795-144.786
		c-22.286-63.719-39.516-204.288-51.456-245.6c-22.146-76.621-75.647-97.534-75.647-97.534L2333.788,677.968z"/>
	<path style="fill:#6BA638;" d="M2803.169,1088.362c-40.431-69.521-53.538-149.427-66.215-226.702
		c-4.626-28.198-8.995-54.832-14.614-80.598c-13.372-61.314-60.938-77.342-62.957-77.995l-1.522-0.492l-292.632-9.254l10.396,15.36
		c0.409,0.604,40.978,60.881,46.461,98.088c10.689,72.544,20.587,136.681,33.468,186.92c13.809,53.85,30.74,89.796,53.288,113.124
		c7.751,8.02,15.576,15.12,22.872,21.218l32.18,3.67c-9.915-6.577-21.222-18.989-39.299-37.693
		c-42.854-44.338-59.434-139.073-81.647-289.825c-4.312-29.255-26.48-68.853-39.643-90.343l250.319,7.916
		c3.001,1.24,10.798,4.888,19.313,12.31c14.492,12.633,24.169,29.718,28.763,50.781c5.52,25.311,9.853,51.722,14.439,79.684
		c6.332,38.601,12.88,78.515,23.081,117.887c11.635,44.905,26.477,82.531,45.377,115.029c16.685,28.691,37.473,51.13,55.854,67.446
		l37.762,4.509C2858.375,1155.199,2826.287,1128.114,2803.169,1088.362z"/>
	<path style="fill:#6BA638;" d="M2804.407,1117.894c-22.22-35.393-74.847-107.249-215.183-98.669
		c-107.41,6.566-93.416,58.882-73.677,81.509c8.138,9.328,21.268,20.481,38.427,29.989l218.444,26.202
		C2787.744,1157.163,2817.639,1138.969,2804.407,1117.894z"/>
	<path style="fill:#6BA638;" d="M2616.122,860.496c0,13.623-17.802,24.667-39.762,24.667s-39.762-11.044-39.762-24.667
		c0-13.624,17.802-24.667,39.762-24.667S2616.122,846.872,2616.122,860.496z"/>
	<path style="fill:#639334;" d="M2905.561,1098.78c-3.396,9.593-23.08,12.329-43.968,6.11
		c-20.887-6.218-35.066-19.035-31.671-28.628c3.396-9.593,23.081-12.329,43.968-6.111
		C2894.776,1076.369,2908.956,1089.188,2905.561,1098.78z"/>
	<path style="fill:#BDE377;" d="M2687.688,1146.737l52.026,6.212c2.829-5.107,4.771-11.352,5.411-18.997l16.398,1.512l-0.776-22.822
		l-15.912-0.415c-2.811-32.047-16.805-52.849-52.328-54.492c-47.722-2.207-52.383,31.85-60.998,49.032
		c-8.616,17.182-11.339,29.189-24.9,28.081c-13.562-1.107-21.675-7.39-22.637-24.373c-1.672-29.522,19.933-26.145,19.933-26.145
		l-0.677-28.49c0,0-49.842-3.736-52.839,43.919l-14.802-0.463l0.513,19.007l15.711,2.236c0.749,3.688,1.76,7.124,2.985,10.331
		l95.716,11.429c3.806-6.646,6.084-13.577,7.958-19.061c6.9-20.194,13.957-33.486,27.985-33.075
		c18.468,0.542,26.942,11.533,25.117,31.555C2709.91,1139.955,2696.999,1145.286,2687.688,1146.737z"/>
</g>
<path style="fill:#6BA638;" d="M245.163,490.276c32.699-2.539,54.815,49.335,20.665,62.623
	c-13.362,5.199-28.647-5.125-36.753-16.502c-13.012-18.263,3.883-25.683,7.088-37.122L245.163,490.276z"/>
<path style="fill:#6BA638;" d="M437.313,685.266c-19.737,0.204-26.435,16.132-20.899,34.661l29.608,32.836l17.416-36.484
	C480.41,712.073,451.115,685.123,437.313,685.266z"/>
<path style="fill:#6BA638;" d="M1079.122,290.786l-3,1.5c-39.232-1.608-32.482,41.074,3,38.998
	c10.032-0.587,28.583-7.692,30.071-20.921C1110.756,296.449,1089.958,290.901,1079.122,290.786z"/>
<path style="fill:#6BA638;" d="M864.226,160.664c-10.74-3.148-15.361,2.096-22.093,13.128h-4.5
	c-0.494,15.542,3.804,26.105,20.999,27.034c10.977,0.592,26.212-5.881,26.665-18.368
	C885.646,172.839,873.568,163.402,864.226,160.664z"/>
<path style="fill:#639334;" d="M756.638,955.252c8.448-34.868,45.734-14.075,28.95,13.833c-17.864,29.702-56.841,3.266-28.95-22.833
	V955.252z"/>
<path style="fill:#639334;" d="M1010.125,958.252c-25.235-2.174-4.621-47.158,23.964-35.664
	c35.153,14.135-7.745,56.802-25.464,40.164L1010.125,958.252z"/>
<path style="fill:#6BA638;" d="M1325.109,923.754c-3.263-13.631-9.377-28.254,7.833-34.165c13.457-4.622,33.968,3.627,37.237,17.665
	c2.684,11.527-9.162,29.465-17.7,36.375c-14.864,12.028-21.573-0.991-30.37-12.376L1325.109,923.754z"/>
<path style="fill:#6BA638;" d="M1520.1,824.759c-18.966,2.342-21.95-51.628,9.042-39.37c4.909,1.942,22.453,14.891,23.657,20.169
	c2.89,12.67-17.83,16.44-25.2,16.2L1520.1,824.759z"/>
<path style="fill:#6BA638;" d="M1530.599,251.788c16.407,0.058,53.556,14.845,25.464,32.66
	c-20.467,12.979-38.608-4.703-55.196-13.422c-0.389-12.505,21.409-15.71,26.732-17.738L1530.599,251.788z"/>
<path style="fill:#6BA638;" d="M1748.088,400.28c-30.361-10.801-29.839-47.296,7.5-41.998c11.423,1.621,27.438,8.555,26.993,22.504
	c-0.532,16.698-19.927,17.004-31.63,21.178c-3.106-0.997,0.077-1.391,0.137-3.184L1748.088,400.28z"/>
<path style="fill:#639334;" d="M2385.557,497.775c-6.68-5.735-17.082-8.335-22.793-14.593c-12.092-13.251,0.396-19.93,15.293-16.982
	c20.429,4.042,43.023,18.424,53.843,35.771c-19.032,1.849-37.729-4.384-57.057-4.118c-2.005-1.648,1.075-0.552,1.714-1.578
	L2385.557,497.775z"/>
<path style="fill:#639334;" d="M2114.069,424.279c8.798-24.297,46.546-8.426,41.737,14.738
	c-14.048,5.603-29.943-4.354-38.737-14.738H2114.069z"/>
<path style="fill:#6BA638;" d="M2574.547,280.286c15.82-17.33,44.195,7.228,22.165,20.623c-7.256,4.412-21.89,2.416-27.825-4.54
	c-8.347-9.778,0.273-9.817,5.66-19.083V280.286z"/>
<path style="fill:#6BA638;" d="M2762.037,343.283c-19.132,1.968-43.584-15.99-18.367-28.867
	c24.531-12.526,36.951,21.363,21.367,24.367L2762.037,343.283z"/>
<path style="fill:#639334;" d="M2918.029,658.268c-5.557-28.115,47.49-14.289,41.736,14.738
	c-13.039,8.211-36.492,2.795-44.736-10.238L2918.029,658.268z"/>
<path style="fill:#639334;" d="M3216.515,691.266c-11.964-4.618-49.087-14.192-19.499-28.165
	c19.041-8.992,32.22,10.751,38.811,24.909c-4.145,1.395-8.61,2.308-13.312,1.756L3216.515,691.266z"/>
<path style="fill:#6BA638;" d="M2399.056,733.264c10.47,5.439,22.149,14.332,33.292,7.906c10.963-6.323,11.746-22.083,2.367-30.065
	c-16.653-14.174-62.735-8.047-35.659,19.16V733.264z"/>
<path style="fill:#6BA638;" d="M2621.045,715.265c5.447,10.63,14.428,20.764,25.386,25.833c6.819,3.154,31.649,11.045,37.271,2.327
	c9.044-14.024-43.624-41.586-52.158-25.16L2621.045,715.265z"/>
<path style="fill:#639334;" d="M3071.021,1064.747c-26.172-3.165-47.352,32.242-11.97,35.993
	c10.53,1.116,30.138-3.714,35.771-13.905c7.106-12.854-5.369-15.594-14.802-19.088L3071.021,1064.747z"/>
<path style="fill:#6BA638;" d="M2175.566,907.255c-18.978,13.544-12.313,53.755,16.16,41.659
	c8.622-3.663,15.625-17.576,15.256-26.66c-0.629-15.488-11.129-13.091-23.916-18L2175.566,907.255z"/>
<path style="fill:#6BA638;" d="M1931.079,872.757c10.704,8.225,54.538,18.695,51.032-7.534c-3.756-28.091-43.473-4.781-49.532,0.034
	L1931.079,872.757z"/>
<path style="fill:#6BA638;" d="M2063.072,1586.721c-28.654-5.676-37.652-50.383-4.534-55.531
	c38.831-6.037,34.809,44.325,10.534,57.031L2063.072,1586.721z"/>
<path style="fill:#6BA638;" d="M1793.086,1454.728c11.836-7.975,9.657-25.372,26.993-23.993
	c12.363,0.983,19.134,11.127,19.505,22.493c0.981,30.06-40.68,22.467-46.498,6V1454.728z"/>
<path style="fill:#6BA638;" d="M2346.558,1501.226c16.296-1.513,43.935-24.536,15-28.499c-7.198-0.985-19.787,4.242-24.405,10.129
	c-7.548,9.621-3.972,11.334,3.406,18.37H2346.558z"/>
<path style="fill:#6BA638;" d="M2579.047,1396.23c7.676,9.338,45.842,36.44,48.109,6.043c2.043-27.387-37.617-15.182-48.109-9.043
	V1396.23z"/>
<path style="fill:#6BA638;" d="M3168.518,1726.214c-14.548-12.212-50.066-36.557-57.032-1.534
	c-7.899,39.714,42.831,24.625,58.531,10.534L3168.518,1726.214z"/>
<path style="fill:#639334;" d="M2886.531,1810.21c-4.826,27.578,47.06,32.138,49.564,7.505c0.812-7.981-9.265-19.716-16.488-22.499
	c-12.019-4.63-23.713,5.445-31.576,13.494L2886.531,1810.21z"/>
<path style="fill:#6BA638;" d="M1643.093,1706.715c-4.331-12.02-11.937-59.123,18.034-49.532
	c10.557,3.379,11.292,20.28,10.465,30.033c-1.334,15.732-6.967,14.021-20.999,20.999L1643.093,1706.715z"/>
<path style="fill:#6BA638;" d="M1400.105,1847.708c0.443-16.616-15.835-71.589,22.13-50.658
	c25.688,14.161,4.089,55.732-16.131,50.658H1400.105z"/>
<path style="fill:#6BA638;" d="M1017.625,1435.229c10.61-3.486,44.939-27.823,22.16-38.659c-6.133-2.917-25.304,4.023-28.528,9.715
	c-4.477,7.905,3.961,17.486,7.868,25.944L1017.625,1435.229z"/>
<path style="fill:#6BA638;" d="M1235.114,1304.735l-4.5-3c-1.895,14.286,17.486,45.957,34.533,30.033
	C1275.774,1321.842,1253.38,1289.328,1235.114,1304.735z"/>
<path style="fill:#639334;" d="M858.632,1720.215c-18.089,14.371-57.204-3.503-35.664-26.999
	c15.453-16.856,46.835,5.339,41.664,22.499L858.632,1720.215z"/>
<path style="fill:#639334;" d="M707.14,1492.226c-28.518-2.392-29.903,22.775-3,28.416c11.485,2.408,21.476,4.89,22.499-8.917
	c0.696-9.398-9.077-19.541-16.5-19.499H707.14z"/>
<path style="fill:#6BA638;" d="M449.153,1304.735c-11.828-14.409-21.044,4.839-20.999,16.499
	c0.045,11.648,3.488,28.361,13.128,36.292c13.183,10.845,18.859-4.108,22.536-18.288c3.566-13.752-0.789-21.314-10.166-31.503
	L449.153,1304.735z"/>
<path style="fill:#6BA638;" d="M263.162,1111.245h-4.499c-3.377,19.468-8.992,82.504,29.993,59.991
	C316.607,1155.096,278.348,1123.241,263.162,1111.245z"/>
</svg>
