<?xml version="1.0" encoding="UTF-8" standalone="no"?>
<!-- Generator: Adobe Illustrator 27.5.0, SVG Export Plug-In . SVG Version: 6.00 Build 0)  -->

<svg
   version="1.1"
   id="Layer_1"
   x="0px"
   y="0px"
   viewBox="0 0 4000 4000"
   style="enable-background:new 0 0 4000 4000;"
   xml:space="preserve"
   sodipodi:docname="piggyPal.svg"
   inkscape:version="1.4 (e7c3feb1, 2024-10-09)"
   xmlns:inkscape="http://www.inkscape.org/namespaces/inkscape"
   xmlns:sodipodi="http://sodipodi.sourceforge.net/DTD/sodipodi-0.dtd"
   xmlns="http://www.w3.org/2000/svg"
   xmlns:svg="http://www.w3.org/2000/svg"><defs
   id="defs136" /><sodipodi:namedview
   id="namedview136"
   pagecolor="#ffffff"
   bordercolor="#000000"
   borderopacity="0.25"
   inkscape:showpageshadow="2"
   inkscape:pageopacity="0.0"
   inkscape:pagecheckerboard="0"
   inkscape:deskcolor="#d1d1d1"
   inkscape:zoom="0.1204592"
   inkscape:cx="1876.1539"
   inkscape:cy="1693.5194"
   inkscape:window-width="1712"
   inkscape:window-height="1069"
   inkscape:window-x="0"
   inkscape:window-y="43"
   inkscape:window-maximized="0"
   inkscape:current-layer="g136" />
<g
   id="g136">
	
	<g
   id="g135"
   transform="matrix(1.2455428,0,0,1.2455428,-489.06975,-584.86998)">
		<g
   id="g2">
			<path
   style="fill:#000072"
   d="m 1051.92,2837.947 c 13.86,21.411 28.134,42.051 45.962,57.185 17.468,15.234 38.999,25.168 59.283,24.697 10.208,-0.095 20.317,-2.781 28.5,-7.561 8.323,-4.719 14.385,-11.394 18.108,-19.832 3.711,-8.362 4.835,-18.062 2.935,-26.565 -1.775,-8.538 -6.713,-16.401 -12.686,-20.654 -5.573,-4.189 -13.916,-5.366 -19.224,-3.289 -1.394,0.515 -2.383,1.06 -3.461,1.863 -1.061,0.798 -2.073,1.814 -2.913,2.944 -1.705,2.273 -2.601,4.941 -2.664,6.902 -0.398,3.335 3.047,9.807 10,13.574 6.898,4.089 18.099,6.589 28.468,7.283 21.101,1.309 42.982,-5.098 59.65,-17.874 16.912,-12.8 29.103,-32.346 33.656,-53.171 l 0.052,-0.242 c 2.091,-9.565 11.543,-15.625 21.11,-13.533 9.279,2.029 15.25,11.023 13.694,20.288 -5.083,29.941 -21.455,57.28 -45.234,76.321 -23.91,19.312 -54.755,28.574 -85.145,26.958 -7.62,-0.413 -15.212,-1.528 -22.706,-3.34 -7.516,-1.882 -15.375,-4.614 -23.053,-9.058 -7.638,-4.38 -15.14,-10.823 -20.543,-18.975 -5.455,-8.105 -9.238,-18.589 -8.721,-29.836 0.48,-10.972 4.598,-20.845 10.732,-28.794 3.082,-3.989 6.715,-7.546 10.863,-10.557 4.126,-3.015 8.931,-5.469 13.635,-7.058 19.243,-6.365 39.147,-2.092 54.286,9.033 14.888,11.165 23.557,27.292 26.719,43.999 3.181,16.846 0.593,33.992 -6.488,49.036 -3.535,7.542 -8.369,14.531 -14.198,20.691 -5.858,6.067 -12.632,11.077 -19.841,14.907 -14.495,7.603 -30.389,10.828 -45.972,10.369 -15.768,-0.513 -30.73,-5.188 -43.899,-11.929 -13.215,-6.836 -24.585,-16.035 -34.464,-26.213 -19.603,-20.752 -32.172,-45.176 -42.161,-69.368 -1.875,-4.543 0.287,-9.746 4.83,-11.624 4.031,-1.663 8.583,-0.149 10.868,3.386 z"
   id="path1" />
		</g>
		<g
   id="g9">
			<g
   id="g3">
				<path
   style="fill:#94d154"
   d="m 2995,3155.631 c -85.28,-15.898 -168.09,-62.044 -250.07,-118.381 l -73.359,143.225 c 93.328,71.029 185.986,126.871 276.431,132.547 22.58,-46.157 37.767,-99.058 46.998,-157.391 z"
   id="path2" />
				<path
   style="fill:#000072"
   d="m 2949.472,3315.55 -1.621,-0.103 c -99.448,-6.24 -200.674,-74.375 -277.751,-133.037 l -1.619,-1.23 75.547,-147.5 2.28,1.567 c 98.809,67.905 175.645,104.297 249.136,117.998 l 2.327,0.43 -0.371,2.339 c -9.556,60.386 -25.439,113.57 -47.214,158.076 z m -274.81,-135.777 c 75.903,57.647 174.927,123.97 271.87,130.713 20.916,-43.198 36.282,-94.624 45.693,-152.905 -72.915,-14.048 -149.128,-50.171 -246.392,-116.763 z"
   id="path3" />
			</g>
			<g
   style="opacity:0.55"
   id="g4">
				<path
   style="fill:#ffffff"
   d="m 2963.678,3179.318 c -79.837,-17.308 -156.667,-61.338 -232.437,-115.408 l 13.68,-26.665 c 81.991,56.32 164.776,102.49 250.078,118.386 -9.241,58.337 -24.41,111.232 -46.983,157.399 -7.913,-0.486 -15.872,-1.379 -23.809,-2.637 17.592,-39.403 30.484,-83.344 39.471,-131.075 z"
   id="path4" />
			</g>
			<g
   id="g5">
				<path
   style="fill:#000072"
   d="m 2948.007,3329.397 c -0.342,0 -0.686,-0.01 -1.03,-0.034 -103.184,-6.475 -206.682,-76.006 -285.322,-135.854 -6.311,-4.804 -8.274,-13.438 -4.658,-20.498 l 73.359,-143.227 c 2.146,-4.19 5.996,-7.256 10.562,-8.408 4.568,-1.157 9.407,-0.288 13.289,2.378 97.124,66.748 172.312,102.456 243.794,115.781 8.721,1.626 14.561,9.897 13.174,18.657 -9.773,61.758 -26.079,116.269 -48.462,162.026 -2.76,5.639 -8.485,9.179 -14.706,9.179 z m -255.591,-153.696 c 70.449,52.774 159.177,110.445 245.642,120.024 16.741,-36.816 29.543,-79.512 38.162,-127.261 -67.471,-15.332 -138.171,-49.038 -225.156,-107.265 z"
   id="path5" />
			</g>
			<g
   id="g6">
				
					<circle
   transform="matrix(0.598,-0.8015,0.8015,0.598,-1417.5411,3556.584)"
   style="fill:#ffffff"
   cx="2836.938"
   cy="3191.499"
   id="ellipse5"
   r="36.577" />
			</g>
			<g
   id="g8">
				<g
   id="g7">
					<path
   style="fill:#000072"
   d="m 2926.242,3219.774 -1.13,6.039 c 4.225,0.989 8.143,2.906 10.299,4.759 l -3.302,7.08 c -2.399,-1.96 -5.897,-3.997 -10.034,-4.771 -3.624,-0.678 -6.366,0.256 -6.842,2.801 -0.452,2.415 1.297,4.323 5.706,6.793 6.375,3.561 10.425,7.609 9.271,13.776 -1.047,5.597 -5.813,9.247 -12.866,9.31 l -1.13,6.04 -6.229,-1.165 1.047,-5.594 c -4.225,-0.989 -6.922,-2.415 -8.828,-3.825 l 3.188,-6.842 c 1.521,1.01 4.172,3.021 8.754,3.878 4.132,0.773 5.801,-0.758 6.134,-2.539 0.392,-2.097 -1.584,-3.849 -6.609,-6.895 -7.064,-4.087 -9.465,-8.156 -8.394,-13.88 1.059,-5.659 5.97,-9.74 13.519,-9.646 l 1.213,-6.485 z"
   id="path6" />
				</g>
			</g>
		</g>
		<g
   id="g16">
			<g
   id="g10">
				<path
   style="fill:#94d154"
   d="m 2891.342,2931.646 c -71.477,49.157 -162.628,75.207 -260.407,93.472 l 49.611,153.081 c 116.197,-15.926 221.167,-42.101 289.052,-102.134 -16.738,-48.582 -43.471,-96.69 -78.256,-144.419 z"
   id="path9" />
				<path
   style="fill:#000072"
   d="m 2678.862,3180.887 -51.091,-157.647 2.717,-0.508 c 117.856,-22.017 197.881,-50.728 259.478,-93.086 l 1.948,-1.343 1.394,1.914 c 36.006,49.399 62.449,98.203 78.589,145.059 l 0.53,1.533 -1.216,1.079 c -74.641,66.001 -194.368,89.566 -290.334,102.72 z M 2634.098,3027 l 48.132,148.515 c 94.419,-13.042 211.306,-36.323 284.536,-100.195 -15.82,-45.323 -41.382,-92.52 -76.003,-140.332 -61.435,41.704 -140.83,70.161 -256.665,92.012 z"
   id="path10" />
			</g>
			<g
   style="opacity:0.55"
   id="g11">
				<path
   style="fill:#ffffff"
   d="m 2885.996,2970.55 c -68.632,44.308 -154.062,67.617 -245.851,83.086 l -9.22,-28.515 c 97.776,-18.285 188.926,-44.299 260.417,-93.474 34.781,47.738 61.522,95.83 78.272,144.415 -5.931,5.259 -12.185,10.265 -18.68,14.996 -15.478,-40.282 -37.487,-80.439 -64.938,-120.508 z"
   id="path11" />
			</g>
			<g
   id="g12">
				<path
   style="fill:#000072"
   d="m 2680.534,3194.578 c -7.007,0 -13.354,-4.502 -15.566,-11.328 l -49.612,-153.081 c -1.45,-4.482 -0.903,-9.37 1.501,-13.418 2.407,-4.048 6.44,-6.865 11.069,-7.729 115.847,-21.641 194.226,-49.663 254.136,-90.864 7.307,-5.024 17.288,-3.33 22.512,3.848 36.826,50.522 63.914,100.562 80.508,148.73 2.158,6.265 0.327,13.208 -4.636,17.598 -77.444,68.481 -199.763,92.671 -297.676,106.094 -0.749,0.101 -1.496,0.15 -2.236,0.15 z m -28.313,-156.89 39.663,122.378 c 87.114,-12.617 190.608,-34.722 258.445,-89.175 -14.246,-37.852 -35.437,-77.071 -63.159,-116.885 -58.501,36.944 -132.29,63.209 -234.949,83.682 z"
   id="path12" />
			</g>
			<g
   id="g13">
				
					<circle
   transform="matrix(0.904,-0.4274,0.4274,0.904,-1042.6115,1493.5345)"
   style="fill:#ffffff"
   cx="2805.124"
   cy="3068.8921"
   id="ellipse12"
   r="36.577" />
			</g>
			<g
   id="g15">
				<g
   id="g14">
					<path
   style="fill:#000072"
   d="m 2888.206,3025.625 3.479,5.065 c 3.684,-2.293 7.808,-3.714 10.642,-3.932 l 2.681,7.338 c -3.081,0.314 -6.994,1.353 -10.464,3.736 -3.039,2.087 -4.314,4.688 -2.848,6.822 1.391,2.026 3.977,2.135 8.84,0.757 7.023,-1.999 12.749,-2.008 16.301,3.163 3.223,4.694 2.442,10.646 -2.494,15.684 l 3.479,5.065 -5.223,3.587 -3.222,-4.691 c -3.684,2.294 -6.598,3.196 -8.942,3.55 l -2.593,-7.088 c 1.789,-0.363 5.085,-0.821 8.927,-3.46 3.465,-2.38 3.559,-4.643 2.533,-6.136 -1.208,-1.759 -3.844,-1.596 -9.549,-0.19 -7.883,2.116 -12.458,0.943 -15.755,-3.857 -3.259,-4.746 -2.681,-11.105 2.716,-16.384 l -3.735,-5.438 z"
   id="path13" />
				</g>
			</g>
		</g>
		<g
   id="g23">
			<g
   id="g17">
				<path
   style="fill:#94d154"
   d="m 2604.571,2860.86 c 3.718,86.669 -22.591,177.746 -59.016,270.307 l 156.067,39.216 c 48.184,-106.928 81.722,-209.782 66.881,-299.181 -50.056,-11.605 -105.018,-14.486 -163.932,-10.342 z"
   id="path16" />
				<path
   style="fill:#000072"
   d="m 2703.002,3173.235 -160.72,-40.385 1.013,-2.573 c 43.901,-111.563 62.051,-194.624 58.848,-269.312 l -0.1,-2.363 2.358,-0.166 c 60.984,-4.282 116.379,-0.791 164.651,10.396 l 1.582,0.366 0.266,1.602 c 16.318,98.296 -27.266,212.271 -67.061,300.586 z m -154.175,-43.755 151.414,38.052 c 39.067,-86.943 81.384,-198.359 66.125,-294.331 -46.802,-10.645 -100.364,-14.023 -159.272,-10.078 2.734,74.209 -15.295,156.596 -58.267,266.357 z"
   id="path17" />
			</g>
			<g
   style="opacity:0.55"
   id="g18">
				<path
   style="fill:#ffffff"
   d="m 2634.704,2886.042 c 1.118,81.684 -24.476,166.457 -60.091,252.458 l -29.061,-7.323 c 36.406,-92.569 62.745,-183.626 59.019,-270.317 58.919,-4.135 113.872,-1.27 163.938,10.325 1.308,7.819 2.231,15.775 2.793,23.792 -42.354,-8.266 -88.069,-10.929 -136.598,-8.935 z"
   id="path18" />
			</g>
			<g
   id="g19">
				<path
   style="fill:#000072"
   d="m 2701.628,3186.76 c -1.323,0 -2.664,-0.161 -3.997,-0.493 l -156.067,-39.219 c -4.568,-1.147 -8.418,-4.209 -10.571,-8.398 -2.153,-4.185 -2.4,-9.102 -0.676,-13.482 43.154,-109.663 61.011,-190.962 57.896,-263.604 -0.381,-8.862 6.362,-16.416 15.21,-17.036 62.378,-4.404 119.155,-0.786 168.777,10.718 6.455,1.494 11.372,6.733 12.458,13.271 16.931,101.987 -27.502,218.491 -68.105,308.594 -2.694,5.978 -8.609,9.649 -14.925,9.649 z m -134.121,-66.962 124.766,31.353 c 35.552,-80.528 71.755,-179.966 61.616,-266.367 -39.639,-8.018 -84.124,-10.865 -132.583,-8.516 0.256,69.189 -16.658,145.663 -53.799,243.53 z"
   id="path19" />
			</g>
			<g
   id="g20">
				
					
			</g>
			<g
   id="g22">
				<g
   id="g21">
					<path
   style="fill:#000072"
   d="m 2682.552,2913.405 6.139,-0.26 c 0.012,-4.339 0.998,-8.588 2.317,-11.106 l 7.642,1.622 c -1.369,2.778 -2.566,6.646 -2.388,10.851 0.156,3.684 1.683,6.145 4.27,6.035 2.455,-0.104 3.92,-2.238 5.334,-7.09 2.034,-7.013 5.066,-11.87 11.333,-12.135 5.689,-0.24 10.319,3.582 11.969,10.439 l 6.139,-0.259 0.267,6.331 -5.686,0.24 c -0.012,4.339 -0.794,7.288 -1.738,9.463 l -7.384,-1.565 c 0.642,-1.709 2.003,-4.745 1.807,-9.402 -0.177,-4.2 -2.045,-5.481 -3.855,-5.405 -2.132,0.09 -3.394,2.41 -5.23,7.992 -2.391,7.803 -5.814,11.059 -11.632,11.304 -5.752,0.243 -10.834,-3.623 -12.443,-10.999 l -6.592,0.279 z"
   id="path20" />
				</g>
			</g>
		</g>
		<g
   id="g24">
			<path
   style="fill:#e8811a"
   d="m 2833.302,3049.946 v 309.536 c 0,45.067 -36.558,81.626 -81.625,81.626 h -478.476 c -45.115,0 -81.626,-36.559 -81.626,-81.626 v -309.536 c 0,-45.067 36.51,-81.625 81.626,-81.625 h 478.476 c 45.066,0 81.625,36.559 81.625,81.625 z"
   id="path23" />
		</g>
		<g
   style="opacity:0.55"
   id="g25">
			<path
   style="fill:#ffffff"
   d="m 2711.983,3014.725 h -360.608 v -44.53 h 405.138 v 0 c 0,24.594 -19.936,44.53 -44.53,44.53 z"
   id="path24" />
		</g>
		<g
   id="g26">
			<path
   style="fill:#000072"
   d="m 2751.652,3460.554 h -478.459 c -55.735,0 -101.079,-45.346 -101.079,-101.079 v -309.521 c 0,-55.733 45.344,-101.079 101.079,-101.079 h 478.459 c 55.735,0 101.079,45.346 101.079,101.079 v 309.521 c 0,55.733 -45.344,101.079 -101.079,101.079 z m -478.459,-472.783 c -34.29,0 -62.188,27.896 -62.188,62.183 v 309.521 c 0,34.287 27.898,62.183 62.188,62.183 h 478.459 c 34.29,0 62.188,-27.896 62.188,-62.183 v -309.521 c 0,-34.287 -27.898,-62.183 -62.188,-62.183 z"
   id="path25" />
		</g>
		<g
   id="g28">
			<g
   id="g27">
				<path
   style="fill:#e8811a"
   d="m 2603.641,2867.346 v 100.975 h -87.508 v -86.39 c 0,-14.828 -12.057,-26.885 -26.884,-26.885 h -86.001 c -14.828,0 -26.885,12.057 -26.885,26.885 v 86.39 h -87.508 v -100.975 c 0,-30.822 14.779,-58.29 37.628,-75.597 15.897,-12.154 35.781,-19.349 57.318,-19.349 h 124.894 c 28.586,0 54.207,12.688 71.611,32.718 14.536,16.675 23.335,38.455 23.335,62.228 z"
   id="path26" />
			</g>
		</g>
		<g
   id="g30">
			<g
   id="g29">
				<path
   style="fill:#000072"
   d="m 2603.632,2987.771 h -87.51 c -10.74,0 -19.446,-8.706 -19.446,-19.448 v -86.416 c 0,-4.087 -3.325,-7.412 -7.415,-7.412 h -86.038 c -4.089,0 -7.415,3.325 -7.415,7.412 v 86.416 c 0,10.742 -8.706,19.448 -19.446,19.448 h -87.51 c -10.74,0 -19.446,-8.706 -19.446,-19.448 v -101.001 c 0,-63.062 51.306,-114.37 114.37,-114.37 h 124.929 c 63.064,0 114.37,51.309 114.37,114.37 v 101.001 c 0,10.742 -8.703,19.448 -19.443,19.448 z m -68.064,-38.896 h 48.618 v -81.553 c 0,-41.616 -33.86,-75.474 -75.479,-75.474 h -124.929 c -41.619,0 -75.479,33.857 -75.479,75.474 v 81.553 h 48.618 v -66.968 c 0,-25.532 20.771,-46.309 46.306,-46.309 h 86.038 c 25.535,0 46.306,20.777 46.306,46.309 v 66.968 z"
   id="path28" />
			</g>
		</g>
		<g
   style="opacity:0.3"
   id="g31">
			<path
   style="fill:#000072"
   d="m 2833.302,3049.946 v 309.536 c 0,45.081 -36.545,81.626 -81.626,81.626 h -478.475 c -1.313,0 -2.625,-0.049 -3.938,-0.097 -1.555,-0.049 -3.063,-0.194 -4.57,-0.34 -0.972,-0.097 -1.993,-0.243 -2.966,-0.389 -0.583,-0.048 -1.167,-0.146 -1.75,-0.243 -3.792,-0.632 -7.487,-1.507 -11.084,-2.625 -1.216,-0.34 -2.479,-0.778 -3.695,-1.215 -2.528,-0.924 -5.007,-1.993 -7.39,-3.16 -1.069,-0.486 -2.09,-1.021 -3.111,-1.604 -2.479,-1.264 -4.862,-2.722 -7.146,-4.278 -1.118,-0.729 -2.188,-1.507 -3.209,-2.285 -0.972,-0.729 -1.944,-1.458 -2.916,-2.285 -0.633,-0.535 -1.313,-1.07 -1.993,-1.702 -0.535,-0.437 -1.119,-0.924 -1.653,-1.458 -2.723,-2.528 -5.348,-5.299 -7.73,-8.216 -0.68,-0.826 -1.361,-1.653 -1.993,-2.528 -2.139,-2.82 -4.133,-5.834 -5.883,-8.994 -0.486,-0.875 -0.972,-1.75 -1.409,-2.576 -0.827,-1.604 -1.605,-3.209 -2.333,-4.862 -0.973,-2.237 -1.848,-4.522 -2.625,-6.855 -2.771,-8.119 -4.23,-16.87 -4.23,-25.912 v -309.536 c 0,-45.067 36.51,-81.625 81.626,-81.625 h 78.174 v 309.925 c 43.321,16.878 74.27,49.921 86.261,85.594 4.994,14.856 18.891,24.861 34.564,24.861 h 224.978 c 45.081,0 81.626,-36.545 81.626,-81.626 v -309.536 c 0,-9.043 -1.459,-17.793 -4.229,-25.912 33.931,9.867 58.725,41.224 58.725,78.317 z"
   id="path30" />
		</g>
		<g
   style="opacity:0.3"
   id="g32">
			<path
   style="fill:#000072"
   d="m 2580.306,2805.118 -5.494,1.313 c 0,0 -55.908,40.01 -52.262,109.482 0.777,15.119 -1.216,33.885 -5.688,52.408 h -0.73 v -86.39 c 0,-14.828 -12.057,-26.885 -26.884,-26.885 h -86.001 c -14.828,0 -26.885,12.057 -26.885,26.885 v 61.693 c -30.287,-64.513 -46.865,-113.615 -49.88,-151.875 15.897,-12.154 35.781,-19.349 57.318,-19.349 h 124.894 c 28.587,0 54.208,12.688 71.612,32.718 z"
   id="path31" />
		</g>
		<g
   id="g33">
			<path
   style="fill:#ff83b0;stroke:#000072;stroke-width:4.8616;stroke-miterlimit:10"
   d="m 2327.505,2192.074 -0.681,-0.729 -89.89,-96.308 -846.787,23.481 -150.223,489.316 c 0,0 -1.215,201.269 117.067,332.531 v 388.925 c -3.354,96.21 47.595,150.125 148.278,165.293 l 122.949,3.014 180.073,4.375 c 25.717,0.632 50.219,-7.875 69.471,-22.946 4.57,-3.5 8.848,-7.487 12.689,-11.765 0.049,-0.049 0.097,-0.146 0.195,-0.195 0.68,-0.632 1.215,-1.312 1.799,-1.944 0.049,0.049 0.049,0.146 0.097,0.194 9.966,22.315 32.184,36.705 56.589,36.705 h 167.87 c 249.592,13.612 228.882,-174.336 102.093,-223.778 v -309.925 l 50.901,-118.136 -10.793,4.181 c 11.23,-15.849 21.05,-31.892 29.655,-47.935 l 0.097,-0.243 30.094,-69.763 c 70.493,-7.73 120.42,8.848 150.951,36.365 h 0.049 c 6.707,-216.533 -7.878,-436.859 -142.543,-580.713 z m -412.601,1228.032 c -1.41,6.563 -3.451,12.883 -6.028,18.863 -4.133,9.577 -9.723,18.377 -16.432,26.107 l 19.64,-40.886 c 0,-0.048 0,-0.048 0,-0.097 l 3.355,-6.952 c -0.146,0.972 -0.341,1.993 -0.535,2.965 z"
   id="path32" />
		</g>
		<g
   style="opacity:0.55"
   id="g34">
			<path
   style="fill:#ffffff"
   d="m 2155.551,3475.966 h -167.87 c -24.405,0 -46.622,-14.39 -56.588,-36.705 -0.049,-0.049 -0.049,-0.146 -0.097,-0.195 -0.584,0.632 -1.118,1.313 -1.799,1.945 -0.097,0.049 -0.146,0.146 -0.195,0.194 -3.84,4.278 -8.118,8.265 -12.688,11.765 -7.05,5.494 -14.779,10.161 -23.044,13.807 10.209,21.488 31.989,35.246 55.859,35.246 h 167.87 c 86.147,4.716 140.11,-14.634 168.599,-43.997 -30.677,13.759 -73.41,21.051 -130.047,17.94 z m -204.915,-77.931 c 0,0.048 0,0.048 0,0.097 l -19.64,40.886 c 6.708,-7.73 12.299,-16.529 16.432,-26.106 2.577,-5.98 4.619,-12.3 6.028,-18.863 0.195,-0.972 0.389,-1.993 0.535,-2.966 z m -103.794,77.882 -180.073,-4.375 -122.949,-3.014 c -100.683,-15.168 -151.632,-69.083 -148.278,-165.293 V 2914.31 C 1277.26,2783.048 1278.476,2581.779 1278.476,2581.779 l 142.492,-464.134 -30.822,0.875 -150.223,489.316 c 0,0 -1.215,201.269 117.067,332.531 v 388.925 c -3.354,96.21 47.595,150.125 148.278,165.293 l 122.949,3.014 180.073,4.375 c 25.717,0.632 50.219,-7.875 69.471,-22.946 4.181,-3.208 8.07,-6.806 11.619,-10.647 -13.272,5.202 -27.71,7.925 -42.538,7.536 z"
   id="path33" />
		</g>
		<g
   style="opacity:0.55"
   id="g35">
			<path
   style="fill:#ffffff"
   d="m 1912.083,3424.093 c 0,0.049 0,0.049 0,0.097 l -19.64,40.886 c 6.709,-7.73 12.299,-16.53 16.432,-26.107 2.577,-5.98 4.618,-12.3 6.028,-18.863 0.195,-0.972 0.389,-1.993 0.535,-2.966 z m -19.543,41.226 c -0.048,-0.049 -0.048,-0.146 -0.097,-0.194 -0.583,0.632 -1.119,1.313 -1.799,1.944 -0.097,0.049 -0.146,0.146 -0.195,0.195 -0.341,0.389 -0.68,0.778 -1.021,1.118 1.264,-0.535 2.577,-1.069 3.841,-1.604 -0.291,-0.487 -0.534,-0.973 -0.729,-1.459 z"
   id="path34" />
		</g>
		<g
   id="g36">
			<path
   style="fill:#f48cca"
   d="m 1892.443,3465.076 22.995,-47.935 c -0.146,0.972 -0.34,1.993 -0.535,2.966 -3.646,17.112 -11.521,32.377 -22.46,44.969 z"
   id="path35" />
			<path
   style="fill:#000072"
   d="m 1882.448,3480.291 37.81,-78.819 -2.415,16.03 c -0.154,1.011 -0.354,2.07 -0.557,3.081 -3.623,16.997 -11.577,32.925 -23.008,46.084 z"
   id="path36" />
		</g>
		<g
   id="g38">
			<path
   style="fill:#ff3829"
   d="m 2343.305,2171.851 c -29.169,53.623 -137.679,84.591 -267.775,92.175 -170.787,10.063 -378.862,-20.127 -494.033,-92.175 l 0.875,-32.427 563.893,24.016 z"
   id="path37" />
			<path
   style="fill:#000072"
   d="m 2010.802,2268.206 c -147.976,0 -323.833,-27.627 -430.542,-94.385 l -1.125,-0.703 0.974,-36.123 2.363,0.102 764.661,32.583 -1.785,3.281 c -27.322,50.224 -128.137,85.136 -269.685,93.388 -20.752,1.222 -42.5,1.857 -64.861,1.857 z m -426.943,-97.627 c 122.143,75.757 334.663,100.356 491.533,91.123 136.78,-7.973 234.824,-40.644 263.965,-87.695 l -754.722,-32.158 z"
   id="path38" />
		</g>
		<g
   id="g40">
			<path
   style="fill:#f48cca"
   d="m 2288.855,2806.431 -18.862,43.754 -10.793,4.181 c 11.23,-15.849 21.05,-31.892 29.655,-47.935 z"
   id="path39" />
			<path
   style="fill:#000072"
   d="m 2252.548,2859.554 4.67,-6.592 c 10.718,-15.127 20.64,-31.172 29.495,-47.681 l 4.373,2.109 -19.265,44.693 z m 18.933,-18.965 c -1.887,2.905 -3.801,5.786 -5.747,8.638 l 2.429,-0.942 z"
   id="path40" />
		</g>
		<g
   id="g42">
			<path
   style="fill:#f48cca"
   d="m 2319.046,2736.424 c -7.73,22.849 -17.599,46.282 -30.094,69.763 z"
   id="path41" />
			<path
   style="fill:#000072"
   d="m 2291.098,2807.332 -4.377,-2.104 30.093,-69.765 4.534,1.743 c -8.182,24.188 -18.36,47.782 -30.25,70.126 z"
   id="path42" />
		</g>
		<g
   id="g44">
			<path
   style="fill:#f48cca"
   d="m 1915.438,3417.141 c -0.146,0.972 -0.34,1.993 -0.535,2.966 -3.646,17.113 -11.522,32.378 -22.46,44.969 z"
   id="path43" />
			<path
   style="fill:#000072"
   d="m 1882.448,3480.291 37.81,-78.819 -2.415,16.03 c -0.154,1.011 -0.354,2.07 -0.557,3.081 -3.623,16.997 -11.577,32.925 -23.008,46.084 z"
   id="path44" />
		</g>
		<g
   id="g46">
			<path
   style="fill:#f48cca"
   d="m 2319.046,2736.424 c -7.73,22.849 -17.599,46.282 -30.094,69.763 z"
   id="path45" />
			<path
   style="fill:#000072"
   d="m 2291.098,2807.332 -4.377,-2.104 30.093,-69.765 4.534,1.743 c -8.182,24.188 -18.36,47.782 -30.25,70.126 z"
   id="path46" />
		</g>
		<g
   id="g48">
			<path
   style="fill:#ff83b0"
   d="m 2407.088,2968.321 h -187.996 v -78.32 l 69.763,-83.57 0.097,-0.243 c 12.495,-23.481 22.364,-46.914 30.094,-69.763 32.912,-3.597 61.353,-1.896 85.417,3.743 27.468,6.417 49.297,17.939 65.534,32.621 h 0.049 c 66.506,59.894 41.128,171.37 -62.958,195.532 z"
   id="path47" />
			<path
   style="fill:#000072"
   d="m 2407.367,2970.755 h -190.708 v -81.631 l 70.146,-84.077 c 11.768,-22.109 21.838,-45.464 29.937,-69.404 l 0.496,-1.465 1.543,-0.171 c 31.692,-3.467 60.708,-2.188 86.235,3.794 26.404,6.167 48.572,17.119 65.911,32.559 v 0 l 0.742,0.625 c 31.792,28.628 44.509,69.99 34.021,110.645 -11.392,44.16 -48.049,77.451 -98.054,89.063 z m -185.844,-4.863 h 185.286 c 48.069,-11.25 83.267,-43.189 94.177,-85.479 9.956,-38.584 -1.973,-77.852 -31.912,-105.22 l -0.708,-0.601 c -16.821,-15.21 -38.508,-25.996 -64.456,-32.055 -24.583,-5.762 -52.527,-7.056 -83.064,-3.862 -8.096,23.677 -18.101,46.767 -29.749,68.657 l -0.378,0.654 -69.197,82.896 v 75.01 z"
   id="path48" />
		</g>
		<g
   id="g50">
			<path
   style="fill:#f48cca"
   d="m 2319.046,2736.424 c -7.73,22.849 -17.599,46.282 -30.094,69.763 z"
   id="path49" />
			<path
   style="fill:#000072"
   d="m 2291.098,2807.332 -4.377,-2.104 30.093,-69.765 4.534,1.743 c -8.182,24.188 -18.36,47.782 -30.25,70.126 z"
   id="path50" />
		</g>
		<g
   id="g52">
			<path
   style="fill:#ff83b0"
   d="m 2728.195,1347.572 c -14.293,25.28 -34.177,48.761 -60.283,70.104 -2.528,2.091 -5.056,4.133 -7.681,6.126 15.459,121.248 -5.979,239.238 -36.802,342.935 68.548,431.755 -351.005,466.03 -846.302,398.308 -58.533,-4.764 -114.052,-11.667 -166.411,-20.564 -3.549,-0.583 -7.098,-1.216 -10.647,-1.848 -48.713,-8.605 -94.703,-18.911 -137.825,-30.725 -393.057,-107.926 -549.309,-342.983 -403.462,-566.81 -1.896,-108.17 19.058,-218.43 66.507,-331.121 -141.229,-187.705 25.085,-397.093 299.278,-538.662 30.093,-15.557 62.957,-25.475 96.794,-27.176 57.464,-2.868 95.627,16.87 126.498,45.213 224.701,-32.524 440.944,-2.966 648.678,88.675 37.336,-19.009 79.438,-27.808 133.985,-9.626 2.916,0.972 5.785,1.993 8.605,3.111 28.731,10.939 54.74,28.1 77.347,49.053 189.893,176.28 293.638,378.181 211.721,523.007 z"
   id="path51" />
			<path
   style="fill:#000072"
   d="m 2123.134,2194.588 c -99.338,0 -214.373,-9.092 -346.338,-27.139 -57.72,-4.688 -113.779,-11.616 -166.489,-20.572 -3.545,-0.586 -7.104,-1.216 -10.664,-1.851 -48.027,-8.486 -94.473,-18.843 -138.042,-30.776 -233.469,-64.106 -390.295,-173.865 -441.592,-309.055 -32.09,-84.57 -19.521,-174.741 36.328,-260.801 -1.816,-109.98 20.444,-221.023 66.169,-330.076 -45.559,-61.101 -60.728,-126.775 -45.09,-195.229 27.529,-120.52 153.655,-246.609 346.035,-345.935 32.034,-16.558 64.932,-25.793 97.786,-27.444 50.3,-2.529 90.811,11.816 127.412,45.071 223.34,-32.109 441.294,-2.322 647.817,88.557 44.211,-22.222 87.087,-25.154 134.824,-9.246 2.957,0.986 5.869,2.024 8.733,3.157 27.766,10.574 54.053,27.244 78.103,49.534 209.272,194.27 288.591,390.898 212.185,525.984 v 0 c -14.678,25.955 -35.154,49.773 -60.862,70.791 -2.185,1.807 -4.377,3.584 -6.631,5.325 12.898,102.998 0.82,214.902 -36.904,342.017 20.811,131.79 -3.45,234.194 -72.112,304.353 -80.927,82.69 -220.707,123.335 -430.668,123.335 z M 1532.214,650.293 c -3.53,0 -7.102,0.09 -10.733,0.271 -32.156,1.619 -64.385,10.671 -95.798,26.909 -191.106,98.669 -316.316,223.579 -343.528,342.7 -15.398,67.41 -0.234,132.124 45.076,192.341 l 0.84,1.118 -0.542,1.287 c -45.93,109.084 -68.242,220.159 -66.316,330.137 l 0.012,0.745 -0.408,0.625 c -55.317,84.893 -67.857,173.777 -36.262,257.043 50.73,133.704 206.401,242.407 438.332,306.094 43.423,11.895 89.722,22.217 137.603,30.679 3.542,0.625 7.083,1.255 10.62,1.841 52.583,8.935 108.501,15.84 166.213,20.537 409.368,55.962 654.958,25.854 773.005,-94.766 67.625,-69.099 91.409,-170.281 70.698,-300.738 l -0.088,-0.544 0.159,-0.53 c 37.822,-127.246 49.834,-239.094 36.721,-341.934 l -0.176,-1.394 1.118,-0.85 c 2.598,-1.973 5.098,-3.994 7.603,-6.064 25.249,-20.642 45.337,-43.997 59.714,-69.426 v 0 c 75.225,-132.993 -3.75,-327.395 -211.257,-520.027 -23.589,-21.865 -49.348,-38.206 -76.558,-48.567 -2.813,-1.113 -5.637,-2.117 -8.511,-3.074 -46.785,-15.601 -88.77,-12.583 -132.112,9.485 l -1.028,0.525 -1.057,-0.466 c -206.343,-91.025 -424.15,-120.793 -647.349,-88.494 l -1.143,0.166 -0.85,-0.781 c -33.163,-30.448 -69.623,-44.848 -113.998,-44.848 z"
   id="path52" />
		</g>
		<g
   style="opacity:0.55"
   id="g53">
			<path
   style="fill:#ffffff"
   d="m 1621.12,672.641 c -11.96,-1.847 -24.941,-2.528 -39.087,-1.799 -33.836,1.701 -66.7,11.619 -96.794,27.176 -274.193,141.569 -440.506,350.956 -299.278,538.661 -47.449,112.691 -68.403,222.951 -66.506,331.121 -128.054,196.504 -23.238,401.662 270.254,521.841 -339.289,-115.705 -467.439,-335.059 -330.927,-544.544 -1.896,-108.17 19.058,-218.43 66.507,-331.121 -141.229,-187.705 25.085,-397.093 299.278,-538.662 30.093,-15.557 62.957,-25.475 96.794,-27.176 42.003,-2.09 73.7,7.876 99.759,24.503 z"
   id="path53" />
		</g>
		<g
   id="g54">
			<path
   style="fill:#000072"
   d="m 2010.046,2285.35 c -158.567,0 -334.006,-31.426 -438.879,-97.012 -9.106,-5.698 -11.873,-17.696 -6.177,-26.802 5.696,-9.102 17.691,-11.86 26.797,-6.177 147.537,92.271 457.283,112.563 625.295,68.438 57.026,-14.971 95.784,-36.724 109.128,-61.245 5.132,-9.429 16.943,-12.915 26.375,-7.783 9.434,5.132 12.92,16.944 7.786,26.377 -19.06,35.024 -63.948,62.031 -133.411,80.268 -60.315,15.835 -136.458,23.936 -216.914,23.936 z"
   id="path54" />
		</g>
		<g
   style="opacity:0.55"
   id="g55">
			<path
   style="fill:#ffffff"
   d="m 2746.183,1327.542 c -296.829,253.591 -363.723,-74.139 -333.017,-348.817 l -34.984,74.915 c -45.286,185.919 -13.612,456.211 233.109,394.271 0,0 92.353,-40.153 134.892,-120.369 z"
   id="path55" />
		</g>
		<g
   id="g57">
			<path
   style="fill:#ff3829"
   d="m 1777.103,2165.046 c -14.091,50.254 -8.14,101.109 71.92,123.285 33.041,9.152 68.072,10.032 101.393,1.963 47.197,-11.429 73.503,-38.766 68.955,-98.196"
   id="path56" />
			<path
   style="fill:#000072"
   d="m 1903.827,2298.138 c -18.564,0 -37.234,-2.525 -55.425,-7.563 -34.263,-9.492 -57.732,-25.112 -69.756,-46.426 -11.748,-20.83 -12.986,-46.909 -3.784,-79.731 l 4.482,1.26 c -8.852,31.567 -7.754,56.49 3.354,76.187 11.394,20.196 33.919,35.078 66.943,44.229 33.035,9.141 67.688,9.814 100.227,1.943 50.593,-12.256 71.313,-41.787 67.183,-95.762 l 4.639,-0.352 c 4.282,55.933 -18.193,87.91 -70.727,100.635 -15.373,3.719 -31.215,5.58 -47.136,5.58 z"
   id="path57" />
		</g>
		<g
   style="opacity:0.55"
   id="g58">
			<path
   style="fill:#ffffff"
   d="m 1959.29,2287.847 c -2.868,0.875 -5.834,1.702 -8.896,2.431 -33.302,8.07 -68.354,7.195 -101.364,-1.945 -80.07,-22.169 -86.001,-73.021 -71.903,-123.29 l 38.844,4.327 c -9.771,46.233 1.07,91.057 74.869,111.476 22.265,6.175 45.503,8.557 68.45,7.001 z"
   id="path58" />
		</g>
		<g
   id="g59">
			<path
   style="fill:#000072"
   d="m 1408.983,1171.589 c 22.43,-39.106 41.301,-80.339 55.162,-123.416 13.884,-43.047 22.666,-87.939 25.538,-133.525 0.254,-4.023 3.721,-7.08 7.744,-6.826 3.798,0.239 6.733,3.374 6.838,7.104 1.16,46.887 -3.794,94.16 -14.327,140.29 -10.496,46.157 -26.467,91.125 -46.385,134.194 l -0.017,0.034 c -4.513,9.758 -16.08,14.009 -25.839,9.497 -9.757,-4.514 -14.009,-16.082 -9.496,-25.84 0.237,-0.506 0.51,-1.033 0.782,-1.512 z"
   id="path59" />
		</g>
		<g
   id="g60">
			<path
   style="fill:#000072"
   d="m 2548.254,1478.892 c -20.317,0 -40.127,-3.367 -58.997,-10.176 -40.994,-14.795 -96.521,-52.983 -128.264,-150.896 -3.313,-10.215 2.285,-21.182 12.5,-24.495 10.22,-3.303 21.184,2.285 24.497,12.503 21.282,65.645 57.407,109.319 104.47,126.304 44.265,15.984 96.299,7.346 146.628,-24.299 55.203,-42.595 84.705,-96.418 87.698,-159.993 5.505,-117.029 -79.619,-266.111 -233.547,-409.023 -24.163,-22.434 -50.703,-38.572 -78.887,-47.966 -42.722,-14.238 -79.436,-11.624 -119.019,8.489 -5.208,2.642 -11.318,2.805 -16.658,0.457 -203.376,-89.714 -418.035,-119.045 -638.025,-87.205 -5.769,0.825 -11.626,-0.969 -15.923,-4.91 -32.737,-29.998 -67.39,-42.363 -112.373,-40.115 -29.668,1.487 -59.566,9.91 -88.865,25.037 -186.633,96.365 -308.643,217.139 -334.741,331.35 -14.177,62.043 -0.198,121.814 41.548,177.659 39.993,43.984 87.837,66.265 134.729,62.756 49.892,-3.733 96.413,-36.113 134.531,-93.64 5.935,-8.953 18.003,-11.399 26.953,-5.469 8.953,5.933 11.401,18 5.469,26.953 -56.855,85.801 -120.593,107.688 -164.053,110.94 -59.402,4.443 -118.735,-22.59 -167.078,-76.118 -0.391,-0.432 -0.759,-0.881 -1.111,-1.345 -49.358,-65.625 -65.811,-136.414 -48.904,-210.4 29.077,-127.246 155.085,-254.116 354.814,-357.241 34.265,-17.693 69.512,-27.559 104.761,-29.324 52.253,-2.627 94.971,11.428 133.594,44.116 221.248,-30.442 437.153,-0.933 642.112,87.764 45.984,-21.118 90.884,-23.196 140.537,-6.65 33.484,11.162 64.792,30.125 93.049,56.362 164.727,152.937 252.068,308.97 245.933,439.353 -3.567,75.811 -38.413,139.587 -103.572,189.558 -0.461,0.354 -0.938,0.688 -1.428,0.999 -40.413,25.594 -82.366,38.663 -122.378,38.665 z"
   id="path60" />
		</g>
		<g
   id="g61">
			<path
   style="fill:#000072"
   d="m 2122.067,2211.463 c -99.929,0 -215.21,-9.073 -347.068,-27.075 -384.341,-31.275 -668.218,-160.83 -759.382,-346.611 -47.192,-96.172 -38.999,-199.182 23.623,-298.25 -1.062,-111.125 21.846,-223.154 68.118,-333.071 4.165,-9.902 15.579,-14.543 25.466,-10.378 9.9,4.167 14.546,15.569 10.378,25.466 -44.983,106.855 -66.851,215.608 -64.997,323.232 0.066,3.882 -1.03,7.698 -3.152,10.95 -57.661,88.494 -66.14,180.1 -24.521,264.917 85.112,173.447 357.314,294.951 728.145,325.02 0.354,0.029 0.708,0.068 1.062,0.117 187.541,25.639 337.246,32.846 457.666,22.036 139.141,-12.48 240.337,-50.122 300.776,-111.885 64.539,-65.952 86.14,-159.546 66.04,-286.13 -0.454,-2.869 -0.261,-5.803 0.566,-8.589 37.129,-124.937 48.955,-234.5 36.152,-334.956 -1.357,-10.654 6.177,-20.391 16.831,-21.748 10.659,-1.362 20.391,6.177 21.748,16.831 13.357,104.785 1.514,218.247 -36.206,346.738 20.625,135.549 -5.386,241.531 -77.334,315.056 -84.211,86.055 -228.271,128.33 -443.911,128.33 z"
   id="path61" />
		</g>
		<g
   id="g62">
			<path
   style="fill:#000072"
   d="m 2360.228,1314.702 c -7.632,-46.833 -10.95,-94.438 -8.674,-141.721 2.233,-47.263 10.145,-94.133 23.845,-138.987 1.177,-3.857 5.256,-6.028 9.113,-4.851 3.639,1.111 5.771,4.841 5.01,8.494 -9.467,44.685 -13.054,90.288 -11.229,135.483 1.792,45.215 8.906,90 20.02,133.691 2.65,10.42 -3.649,21.013 -14.067,23.662 -10.419,2.651 -21.013,-3.647 -23.663,-14.065 -0.138,-0.544 -0.251,-1.089 -0.342,-1.631 z"
   id="path62" />
		</g>
		<g
   id="g63">
			<path
   style="fill:#000072"
   d="m 1654.838,711.497 -100.161,25.447 c -3.931,0.998 -7.926,-1.379 -8.925,-5.31 -0.853,-3.357 0.76,-6.76 3.696,-8.306 l 91.447,-48.137 c 9.57,-5.037 21.412,-1.362 26.45,8.206 5.037,9.57 1.362,21.414 -8.207,26.45 -1.363,0.717 -2.872,1.278 -4.3,1.65 z"
   id="path63" />
		</g>
		<g
   id="g64">
			<path
   style="fill:#000072"
   d="m 2304.558,765.901 75.175,70.911 c 2.95,2.783 3.086,7.429 0.304,10.381 -2.377,2.517 -6.116,2.981 -8.994,1.331 l -89.659,-51.389 c -9.382,-5.378 -12.629,-17.344 -7.251,-26.726 5.377,-9.385 17.344,-12.629 26.726,-7.253 1.336,0.765 2.619,1.737 3.699,2.745 z"
   id="path64" />
		</g>
		<g
   id="g65">
			
				<ellipse
   transform="matrix(0.1354,-0.9908,0.9908,0.1354,-59.5594,2819.2275)"
   style="fill:#000072"
   cx="1585.6071"
   cy="1443.741"
   rx="129.649"
   ry="99.892998"
   id="ellipse64" />
		</g>
		<g
   id="g66">
			
				<ellipse
   transform="matrix(0.1354,-0.9908,0.9908,0.1354,-28.9717,2842.5688)"
   style="fill:#ffffff"
   cx="1614.27"
   cy="1437.885"
   rx="35.245998"
   ry="28.257999"
   id="ellipse65" />
		</g>
		<g
   id="g67">
			<path
   style="fill:#000072"
   d="m 2025.386,1576.567 c 2.024,-20.107 14.565,-39.7 32.439,-51.926 17.802,-12.444 40.569,-17.878 62.449,-15.029 21.919,2.686 42.683,14.021 56.577,30.266 14.092,16.216 21.093,36.477 21.73,55.811 0.137,4.15 -3.118,7.627 -7.269,7.764 -2.722,0.09 -5.154,-1.279 -6.544,-3.401 l -0.194,-0.3 c -9.576,-14.707 -19.291,-27.312 -31.067,-35.962 -11.55,-8.777 -24.476,-13.999 -38.037,-15.64 -13.55,-1.528 -27.559,0.403 -40.648,5.852 -13.131,5.486 -25.135,14.553 -35.839,27.842 l -0.182,0.225 c -2.62,3.254 -7.38,3.767 -10.634,1.147 -2.052,-1.653 -3.01,-4.207 -2.781,-6.649 z"
   id="path66" />
		</g>
		<g
   id="g68">
			<path
   style="fill:#000072"
   d="m 1967.169,1911.448 c 1.675,12.012 2.848,22.112 5.096,31.155 2.267,9.014 5.197,16.792 9.27,23.992 4.095,7.17 9.392,13.804 16.296,20.034 6.886,6.311 15.27,11.948 25.243,18.22 l 0.389,0.244 c 3.649,2.295 4.746,7.114 2.451,10.764 -1.132,1.799 -2.899,2.983 -4.816,3.442 -13.037,3.074 -27.206,1.416 -40.316,-4.194 -13.059,-5.674 -24.855,-15.825 -32.577,-28.669 -7.823,-12.781 -11.313,-28.035 -10.077,-42.202 1.152,-14.189 6.383,-27.334 15.21,-37.417 2.871,-3.281 7.858,-3.613 11.138,-0.74 1.483,1.296 2.363,3.027 2.617,4.836 z"
   id="path67" />
		</g>
		<g
   id="g70">
			<g
   id="g69">
				<path
   style="fill:#ff83b0"
   d="m 2019.371,1885.353 c 87.048,-44.53 94.45,-155.201 28.803,-210.734 -93.187,-92.25 -305.318,-99.806 -411.782,-56.283 -78.142,35.88 -100.709,144.478 -28.803,210.734 93.944,74.927 318.204,113.055 411.782,56.283 z"
   id="path68" />
			</g>
		</g>
		<g
   style="opacity:0.3"
   id="g73">
			<g
   id="g71">
				<path
   style="fill:#000072"
   d="m 2623.428,1766.736 c 68.548,431.755 -351.005,466.03 -846.302,398.308 -58.533,-4.764 -114.052,-11.667 -166.411,-20.564 l -5.493,-6.709 c -1.702,1.604 -3.403,3.257 -5.154,4.861 -48.713,-8.605 -94.703,-18.911 -137.825,-30.725 l -58.047,-46.768 c 76.521,-73.312 143.611,-149.445 184.788,-233.161 2.431,-4.959 4.813,-9.918 7,-14.925 3.549,4.132 7.39,8.167 11.62,12.008 38.893,31.017 100.148,55.762 165.196,70.007 92.029,20.224 191.74,19.543 246.578,-13.71 40.885,-20.905 64.221,-56.491 70.59,-94.023 46.622,58.776 33.01,152.994 -45.699,193.247 -67.333,40.837 -202.338,32.573 -307.737,-3.208 -17.405,29.51 -38.99,58.29 -63.687,86.633 478.378,34.274 892.243,14.342 777.996,-449.695 -194.463,-162.522 -77.153,-510.416 -77.153,-510.416 -34.809,242.787 79.292,455.48 294.222,309.779 -2.528,2.091 -5.056,4.133 -7.681,6.126 15.461,121.248 -5.978,239.238 -36.801,342.935 z"
   id="path70" />
			</g>
			<g
   id="g72">
				<path
   style="fill:#000072"
   d="m 1595.984,1817.053 c -2.188,5.007 -4.57,9.966 -7,14.925 0,-7.195 0.632,-14.342 1.799,-21.391 1.653,2.188 3.355,4.327 5.201,6.466 z"
   id="path71" />
			</g>
		</g>
		<g
   style="opacity:0.55"
   id="g75">
			<g
   id="g74">
				<path
   style="fill:#ffffff"
   d="m 1643.725,1843.16 c 17.648,14.05 39.816,26.836 64.902,37.92 -39.865,-13.758 -75.306,-31.503 -101.023,-52.019 -71.903,-66.263 -49.345,-174.822 28.78,-210.749 85.515,-34.955 239.286,-36.948 344.734,11.473 -102.093,-33.496 -232.382,-28.489 -308.564,2.625 -78.173,35.88 -100.731,144.487 -28.829,210.75 z"
   id="path73" />
			</g>
		</g>
		<g
   id="g76">
			<path
   style="fill:#000072"
   d="m 1967.035,1988.484 c -32.695,13.33 -67.743,18.855 -101.586,18.386 -33.951,-0.398 -66.857,-6.169 -98.691,-14.165 -3.914,-0.984 -6.288,-4.954 -5.305,-8.867 0.908,-3.613 4.365,-5.918 7.971,-5.471 l 0.035,0.01 c 31.826,3.896 63.813,5.327 94.68,1.792 30.847,-3.462 60.322,-12.241 86.248,-26.829 9.382,-5.278 21.268,-1.953 26.547,7.429 5.28,9.382 1.953,21.27 -7.429,26.548 -0.686,0.386 -1.387,0.728 -2.096,1.023 z"
   id="path75" />
		</g>
		<g
   id="g77">
			
				<ellipse
   transform="matrix(0.1354,-0.9908,0.9908,0.1354,-233.5131,3205.3342)"
   style="fill:#000072"
   cx="1719.861"
   cy="1736.467"
   rx="42.539001"
   ry="31.296"
   id="ellipse76" />
		</g>
		<g
   id="g78">
			
				<ellipse
   transform="matrix(0.1354,-0.9908,0.9908,0.1354,-71.9506,3451.05)"
   style="fill:#000072"
   cx="1941.433"
   cy="1766.752"
   rx="42.539001"
   ry="31.296"
   id="ellipse77" />
		</g>
		<g
   style="opacity:0.55"
   id="g79">
			<path
   style="fill:#ffffff"
   d="m 1755.395,1755.846 c -3.16,23.287 -19.641,40.254 -36.753,37.92 -13.369,-1.848 -23.141,-14.876 -25.329,-31.552 4.521,8.946 11.863,15.168 20.808,16.384 17.113,2.334 33.545,-14.633 36.754,-37.871 0.68,-5.153 0.68,-10.161 0.049,-14.828 4.229,8.216 6.027,18.814 4.471,29.947 z"
   id="path78" />
		</g>
		<g
   style="opacity:0.55"
   id="g80">
			<path
   style="fill:#ffffff"
   d="m 1976.986,1786.134 c -3.209,23.287 -19.641,40.254 -36.754,37.92 -13.369,-1.847 -23.19,-14.876 -25.377,-31.6 4.521,8.994 11.862,15.217 20.808,16.432 17.113,2.333 33.593,-14.633 36.802,-37.921 0.681,-5.105 0.681,-10.063 0.097,-14.73 4.132,8.216 5.931,18.766 4.424,29.899 z"
   id="path79" />
		</g>
		<g
   id="g81">
			<path
   style="fill:#000072"
   d="m 2052.883,1669.053 c 20.24,10.554 36.769,29.053 46.678,50.715 9.956,21.697 13.461,46.521 10.12,70.422 -3.22,23.921 -13.473,46.926 -29.047,64.961 -15.496,18.086 -36.062,31.143 -57.943,36.694 -4.003,1.016 -8.07,-1.406 -9.086,-5.41 -0.703,-2.773 0.244,-5.579 2.224,-7.378 l 0.22,-0.198 c 15.305,-13.838 27.977,-28.01 37.273,-43.777 9.297,-15.696 15.3,-32.683 17.889,-50.273 2.546,-17.593 1.61,-35.735 -3.002,-53.386 -4.514,-17.751 -12.9,-34.719 -24.746,-51.238 l -0.11,-0.151 c -2.405,-3.354 -1.636,-8.022 1.718,-10.43 2.367,-1.696 5.394,-1.809 7.812,-0.551 z"
   id="path80" />
		</g>
		<g
   id="g82">
			<path
   style="fill:#000072"
   d="m 1639.436,1624.963 c -15.845,12.732 -28.477,26.829 -37.588,42.717 -9.18,15.767 -14.95,32.993 -17.218,50.623 -2.227,17.642 -1.002,35.618 3.743,53.23 4.723,17.683 13.129,34.736 24.158,52.175 l 0.153,0.239 c 2.207,3.491 1.167,8.11 -2.323,10.317 -2.418,1.528 -5.388,1.494 -7.712,0.168 -19.589,-11.218 -35.896,-29.316 -45.969,-50.898 -10.165,-21.553 -13.867,-46.462 -10.551,-70.371 3.196,-23.921 13.232,-46.895 28.646,-65.125 15.359,-18.208 36.245,-31.594 58.575,-36.331 4.038,-0.857 8.005,1.724 8.861,5.762 0.604,2.847 -0.5,5.659 -2.621,7.371 z"
   id="path81" />
		</g>
		<g
   id="g83">
			<polyline
   style="fill:#ff3829"
   points="1950.416,2290.294 1969.548,2771.833 1899.279,2957.077 1789.67,2791.279      1849.023,2288.331    "
   id="polyline82" />
			<polygon
   style="fill:#000072"
   points="1952.741,2290.203 1971.891,2772.215 1899.843,2962.151 1787.26,2791.848 1787.358,2791.004 1846.711,2288.059 1851.335,2288.606 1792.079,2790.706 1898.715,2952.005 1967.204,2771.453 1948.093,2290.388 "
   id="polygon82" />
		</g>
		<g
   style="opacity:0.55"
   id="g84">
			<polygon
   style="fill:#ffffff"
   points="1849.029,2288.334 1885.151,2289.014 1827.201,2779.935 1915.73,2913.774 1899.298,2957.091 1789.67,2791.262 "
   id="polygon83" />
		</g>
		<g
   id="g85">
			<path
   style="fill:#000072"
   d="m 1903.827,2315.257 c -20.103,0 -40.313,-2.734 -59.995,-8.184 -38.809,-10.752 -65.754,-29.092 -80.095,-54.517 -14.099,-24.995 -15.852,-55.337 -5.356,-92.759 2.9,-10.347 13.625,-16.372 23.975,-13.477 10.339,2.9 16.372,13.633 13.472,23.975 -7.561,26.963 -6.978,47.622 1.785,63.154 9.077,16.094 28.12,28.252 56.602,36.142 30.229,8.369 61.914,8.989 91.628,1.802 42.458,-10.283 57.639,-32.099 54.141,-77.813 -0.82,-10.708 7.197,-20.053 17.905,-20.874 10.715,-0.82 20.056,7.192 20.874,17.905 4.9,64.038 -23.284,103.936 -83.767,118.584 -16.701,4.04 -33.893,6.062 -51.169,6.062 z"
   id="path84" />
		</g>
		<g
   id="g86">
			<path
   style="fill:#000072"
   d="m 1899.274,2976.526 c -6.477,0 -12.593,-3.242 -16.216,-8.726 L 1773.447,2802 c -2.532,-3.833 -3.628,-8.438 -3.089,-13.003 l 59.353,-502.944 c 1.257,-10.669 10.901,-18.325 21.592,-17.031 10.664,1.26 18.291,10.923 17.031,21.592 l -58.518,495.874 84.746,128.193 55.398,-146.035 -18.975,-477.578 c -0.427,-10.732 7.927,-19.775 18.66,-20.2 10.647,-0.659 19.775,7.925 20.203,18.657 l 19.131,481.538 c 0.103,2.612 -0.322,5.225 -1.25,7.671 l -70.269,185.244 c -2.588,6.821 -8.779,11.621 -16.03,12.427 -0.72,0.082 -1.44,0.121 -2.156,0.121 z"
   id="path85" />
		</g>
		<g
   id="g87">
			<path
   style="fill:#000072"
   d="m 2470.043,2792.254 c -0.205,0 -0.41,-0.01 -0.618,-0.01 -10.735,-0.337 -19.165,-9.311 -18.831,-20.044 6.262,-201.108 -5.154,-425.718 -137.297,-566.812 -7.341,-7.837 -6.938,-20.142 0.901,-27.485 7.839,-7.339 20.144,-6.939 27.488,0.903 141.824,151.426 154.292,385.552 147.781,594.604 -0.327,10.528 -8.965,18.844 -19.424,18.844 z"
   id="path86" />
		</g>
		<g
   id="g88">
			<path
   style="fill:#000072"
   d="m 1811.095,3521.458 c -1.099,0 -2.19,-0.015 -3.293,-0.044 l -303.008,-7.388 c -0.811,-0.02 -1.621,-0.088 -2.424,-0.21 -111.338,-16.778 -168.325,-80.698 -164.824,-184.864 v -381.23 c -116.934,-135.2 -117.119,-331.597 -117.068,-340.005 0.063,-10.698 8.76,-19.331 19.443,-19.331 0.039,0 0.078,0 0.12,0 10.74,0.068 19.395,8.828 19.329,19.565 -0.01,1.929 0.398,195.474 112.068,319.399 3.22,3.57 5,8.208 5,13.018 v 388.921 c 0,0.225 0,0.454 -0.012,0.679 -2.957,84.839 38.535,131.006 130.552,145.21 l 301.787,7.358 c 42.056,1.04 78.725,-26.899 87.117,-66.465 8.552,-40.356 -14.028,-79.277 -60.405,-104.106 -6.321,-3.384 -10.266,-9.971 -10.266,-17.144 v -280.097 c 0,-10.742 8.706,-19.448 19.446,-19.448 10.74,0 19.446,8.706 19.446,19.448 v 268.838 c 54.668,33.506 81.289,86.479 69.827,140.576 -12.053,56.846 -63.418,97.315 -122.835,97.32 z"
   id="path87" />
		</g>
		<g
   id="g89">
			<path
   style="fill:#000072"
   d="m 1620.553,2959.646 c 37.509,12.498 75.618,21.597 114.01,26.97 9.57,1.445 19.243,2.224 28.809,3.394 4.774,0.657 9.614,0.808 14.426,1.094 4.812,0.298 9.614,0.596 14.398,1.045 9.562,0.991 19.172,1.218 28.748,2.163 4.79,0.52 9.595,0.593 14.401,0.627 4.805,0.078 9.613,0.178 14.419,0.107 19.237,-0.303 38.323,-2.5 57.432,-4.111 4.811,-0.205 9.569,-0.789 14.341,-1.318 l 14.349,-1.548 c 4.816,-0.4 9.546,-1.235 14.288,-2.048 l 14.29,-2.29 c 38.02,-6.731 75.498,-17.668 111.758,-33.04 l 0.051,-0.022 c 3.724,-1.577 8.025,0.161 9.603,3.887 1.385,3.267 0.214,6.978 -2.61,8.906 -33.678,23.025 -71.482,40.391 -110.9,52.563 -19.747,5.999 -39.905,10.833 -60.33,14.231 -5.125,0.676 -10.25,1.414 -15.402,1.892 -5.144,0.564 -10.289,1.091 -15.463,1.179 l -15.498,0.483 c -5.161,0.242 -10.321,0.425 -15.485,0.247 -20.631,0.015 -41.331,0.068 -61.865,-2.275 -20.494,-2.703 -40.68,-7.212 -60.563,-12.412 -39.688,-10.796 -77.947,-26.245 -113.202,-46.426 -3.511,-2.012 -4.728,-6.487 -2.719,-10 1.765,-3.081 5.428,-4.395 8.672,-3.313 z"
   id="path88" />
		</g>
		<g
   id="g90">
			<path
   style="fill:#000072"
   d="m 2142.179,3522.176 c -8.198,0.01 -16.755,-0.225 -25.688,-0.703 h -167.349 c -32.21,0 -61.445,-19.033 -74.483,-48.491 -4.346,-9.824 0.093,-21.309 9.912,-25.654 9.819,-4.341 21.306,0.093 25.654,9.912 6.811,15.396 22.087,25.337 38.916,25.337 h 167.873 c 0.354,0 0.708,0.01 1.06,0.029 96.758,5.327 160.969,-21.416 171.792,-71.416 9.456,-43.687 -24.729,-94.126 -77.822,-114.824 -7.468,-2.915 -12.383,-10.107 -12.383,-18.12 v -375.152 c 0,-4.985 1.914,-9.785 5.352,-13.398 146.892,-154.541 119.326,-360.142 119.031,-362.202 -1.526,-10.62 5.84,-20.483 16.46,-22.021 10.61,-1.543 20.476,5.801 22.026,16.421 1.323,9.048 30.244,221.147 -123.977,388.877 v 354.717 c 64.18,30.62 102.136,94.746 89.326,153.931 -5.402,24.954 -34.537,102.757 -185.7,102.757 z"
   id="path89" />
		</g>
		<g
   id="g91">
			<path
   style="fill:#000072"
   d="m 1620.936,3299.771 c 8.884,-5.039 17.494,-9.094 26.544,-12.903 4.484,-1.924 9.061,-3.574 13.606,-5.376 l 13.871,-4.712 c 18.644,-5.911 37.968,-9.98 57.648,-12.241 9.829,-1.401 19.786,-1.538 29.772,-2.034 l 15.013,0.386 c 2.506,0.107 5.028,0.071 7.528,0.303 l 7.504,0.803 c 20.162,1.531 39.906,6.724 59.437,12.717 10.292,3.157 16.075,14.06 12.919,24.353 -3.158,10.291 -14.061,16.074 -24.353,12.917 -0.634,-0.195 -1.25,-0.417 -1.847,-0.669 l -1.129,-0.479 c -15.991,-6.758 -32.466,-13.218 -49.908,-16.389 l -6.497,-1.433 c -2.173,-0.447 -4.388,-0.632 -6.584,-0.967 l -13.254,-1.79 c -8.912,-0.476 -17.876,-1.37 -26.897,-1.035 -18.024,0.125 -36.23,1.921 -54.172,5.559 -17.832,3.582 -35.927,8.887 -52.319,15.847 l -0.437,0.186 c -3.705,1.572 -7.982,-0.154 -9.556,-3.857 -1.464,-3.447 -0.071,-7.387 3.111,-9.186 z"
   id="path90" />
		</g>
		<g
   id="g92">
			<path
   style="fill:#000072"
   d="m 2024.783,3312.478 c 14.066,-10.874 28.625,-19.377 44.193,-26.951 15.481,-7.534 31.729,-13.694 48.541,-18.247 l 6.298,-1.775 6.392,-1.418 c 4.275,-0.889 8.539,-1.946 12.86,-2.686 8.672,-1.248 17.371,-2.822 26.199,-3.235 17.634,-1.719 35.446,-0.723 53.259,0.935 10.724,0.999 18.61,10.503 17.611,21.228 -0.999,10.723 -10.502,18.608 -21.227,17.61 -0.737,-0.068 -1.461,-0.178 -2.17,-0.325 l -1.046,-0.225 c -14.935,-3.201 -30.193,-6.064 -45.729,-6.416 -7.769,-0.625 -15.544,-0.134 -23.384,-0.01 -3.909,0.181 -7.798,0.674 -11.718,0.989 l -5.879,0.554 -5.839,0.908 c -15.625,2.224 -31.154,6.006 -46.273,11.201 -15.031,5.098 -30.171,11.736 -43.451,19.607 l -0.468,0.278 c -3.461,2.051 -7.93,0.908 -9.98,-2.551 -1.897,-3.199 -1.062,-7.262 1.811,-9.476 z"
   id="path91" />
		</g>
		<g
   id="g93">
			<path
   style="fill:#000072"
   d="m 2323.966,2526.868 -3.721,-142.339 c -0.105,-4.041 3.085,-7.402 7.125,-7.507 3.616,-0.095 6.687,2.454 7.369,5.884 l 27.876,139.631 c 2.111,10.571 -4.747,20.852 -15.319,22.961 -10.57,2.112 -20.85,-4.749 -22.96,-15.317 -0.214,-1.075 -0.336,-2.254 -0.37,-3.313 z"
   id="path92" />
		</g>
		<g
   id="g94">
			<path
   style="fill:#000072"
   d="m 2407.089,2987.771 h -187.981 c -10.74,0 -19.446,-8.706 -19.446,-19.448 0,-10.742 8.706,-19.448 19.446,-19.448 h 185.684 c 63,-15.596 88.635,-66.758 81.323,-109.727 -7.82,-45.952 -55.693,-95.385 -164.949,-83.403 -10.662,1.162 -20.276,-6.533 -21.448,-17.217 -1.169,-10.674 6.538,-20.278 17.214,-21.445 127.415,-13.975 196.03,47.978 207.524,115.542 10.444,61.396 -25.005,134.233 -112.974,154.643 -1.439,0.332 -2.913,0.503 -4.393,0.503 z"
   id="path93" />
		</g>
		<g
   id="g101">
			<g
   id="g95">
				<path
   style="fill:#94d154"
   d="m 1112.379,1828.992 c 79.724,65.241 139.608,160.57 192.808,266.035 l 158.156,-107.256 c -56.63,-127.243 -121.232,-238.29 -212.17,-295.836 -49.864,35.172 -95.879,81.586 -138.794,137.057 z"
   id="path94" />
				<path
   style="fill:#000072"
   d="m 1304.262,2098.592 -1.245,-2.471 c -64.153,-127.178 -123.423,-208.982 -192.178,-265.247 l -1.829,-1.499 1.448,-1.87 c 44.392,-57.383 91.265,-103.665 139.314,-137.559 l 1.328,-0.935 1.372,0.869 c 99.885,63.208 166.348,191.873 213.091,296.902 l 0.825,1.858 z m -188.513,-269.976 c 68.081,56.294 126.931,137.563 190.361,262.847 l 154.182,-104.561 c -46.201,-103.574 -111.609,-229.592 -209.048,-292.041 -46.67,33.159 -92.238,78.142 -135.495,133.755 z"
   id="path95" />
			</g>
			<g
   style="opacity:0.55"
   id="g96">
				<path
   style="fill:#ffffff"
   d="m 1158.516,1822.209 c 73.251,63.602 128.117,153.313 176.145,252.873 l -29.468,19.955 c -53.222,-105.455 -113.066,-200.794 -192.815,-266.045 42.928,-55.469 88.921,-101.888 138.784,-137.074 7.962,5.024 15.74,10.498 23.287,16.339 -40.814,30.987 -79.324,69.382 -115.933,113.952 z"
   id="path96" />
			</g>
			<g
   id="g97">
				<path
   style="fill:#000072"
   d="m 1305.187,2114.475 c -1.633,0 -3.274,-0.205 -4.883,-0.625 -5.415,-1.406 -9.961,-5.073 -12.48,-10.063 -63.03,-124.951 -120.938,-205.061 -187.761,-259.746 -8.149,-6.67 -9.509,-18.618 -3.064,-26.948 45.432,-58.723 93.53,-106.179 142.966,-141.05 6.426,-4.536 14.956,-4.746 21.607,-0.542 103.743,65.649 171.819,197.141 219.536,304.363 3.828,8.606 0.942,18.716 -6.851,24.001 l -158.154,107.256 c -3.252,2.207 -7.061,3.354 -10.916,3.354 z M 1139.262,1826.35 c 61.499,54.485 115.877,129.944 173.213,240.239 l 126.433,-85.745 c -43.227,-95.173 -102.695,-205.884 -187.253,-265.222 -38.453,28.78 -76.162,65.931 -112.393,110.728 z"
   id="path97" />
			</g>
			<g
   id="g98">
				
					<circle
   transform="matrix(0.903,-0.4296,0.4296,0.903,-682.5781,739.7977)"
   style="fill:#ffffff"
   cx="1297.443"
   cy="1881.8831"
   id="ellipse97"
   r="43.436001" />
			</g>
			<g
   id="g100">
				<g
   id="g99">
					<path
   style="fill:#000072"
   d="m 1220.594,1801.456 4.625,-5.644 c -3.835,-3.442 -6.82,-7.675 -8.007,-10.835 l 7.48,-5.487 c 1.379,3.41 3.859,7.529 7.724,10.696 3.387,2.775 6.775,3.368 8.723,0.99 1.849,-2.257 1.118,-5.242 -2.063,-10.332 -4.605,-7.348 -6.511,-13.875 -1.789,-19.637 4.286,-5.23 11.332,-6.309 18.713,-2.348 l 4.625,-5.644 5.82,4.769 -4.284,5.228 c 3.835,3.442 5.829,6.467 7.009,9.023 l -7.225,5.304 c -1.006,-1.92 -2.62,-5.527 -6.902,-9.036 -3.861,-3.164 -6.473,-2.522 -7.837,-0.858 -1.606,1.959 -0.548,4.912 2.945,10.953 5.023,8.289 5.199,13.896 0.817,19.245 -4.333,5.288 -11.777,6.734 -19.584,2.326 l -4.966,6.06 z"
   id="path98" />
				</g>
			</g>
		</g>
		<g
   id="g108">
			<g
   id="g102">
				<path
   style="fill:#94d154"
   d="m 1302.298,1643.544 c 34.647,97.015 36.777,209.572 27.954,327.366 l 190.817,-10.307 c 17.119,-138.22 19.054,-266.677 -29.169,-362.883 -60.862,4.411 -124.224,20.439 -189.602,45.824 z"
   id="path101" />
				<path
   style="fill:#000072"
   d="m 1327.621,1973.487 0.205,-2.756 c 10.64,-142.051 2.06,-242.705 -27.82,-326.367 l -0.793,-2.227 2.205,-0.857 c 67.632,-26.262 131.66,-41.733 190.305,-45.984 l 1.621,-0.117 0.728,1.453 c 52.966,105.671 43.54,250.181 29.409,364.27 l -0.249,2.019 z m -22.243,-328.526 c 29.287,83.34 37.786,183.318 27.503,323.374 l 186.025,-10.049 c 13.84,-112.563 22.808,-254.263 -28.455,-358.022 -57.085,4.334 -119.326,19.368 -185.073,44.697 z"
   id="path102" />
			</g>
			<g
   style="opacity:0.55"
   id="g103">
				<path
   style="fill:#ffffff"
   d="m 1345.323,1661.532 c 29.947,92.272 30.676,197.428 20.468,307.494 l -35.538,1.896 c 8.8,-117.796 6.709,-230.341 -27.954,-327.378 65.388,-25.378 128.734,-41.421 189.601,-45.845 4.229,8.41 8.07,17.113 11.522,26.009 -50.95,5.495 -103.747,18.523 -158.099,37.824 z"
   id="path103" />
			</g>
			<g
   id="g104">
				<path
   style="fill:#000072"
   d="m 1330.248,1990.357 c -5.212,0 -10.222,-2.095 -13.892,-5.84 -3.911,-3.994 -5.916,-9.482 -5.498,-15.059 10.454,-139.563 2.166,-238.062 -26.875,-319.373 -3.542,-9.919 1.455,-20.857 11.274,-24.668 69.214,-26.875 134.9,-42.72 195.234,-47.092 7.873,-0.583 15.264,3.645 18.792,10.681 55.012,109.751 45.508,257.517 31.084,373.987 -1.157,9.346 -8.848,16.521 -18.25,17.029 l -190.818,10.308 c -0.35,0.017 -0.702,0.027 -1.051,0.027 z m -3.559,-335.21 c 24.58,78.394 32.246,171.099 24.473,295.161 l 152.549,-8.242 c 12.056,-103.833 18.215,-229.351 -23.621,-323.804 -47.784,4.819 -99.251,17.195 -153.401,36.885 z"
   id="path104" />
			</g>
			<g
   id="g105">
				
					
			</g>
			<g
   id="g107">
				<g
   id="g106">
					<path
   style="fill:#000072"
   d="m 1409.21,1675.774 6.873,-2.45 c -1.51,-4.927 -1.884,-10.093 -1.271,-13.412 l 9.239,-0.842 c -0.578,3.633 -0.578,8.44 1.1,13.148 1.47,4.124 4.067,6.38 6.963,5.348 2.749,-0.979 3.662,-3.915 3.562,-9.915 -0.155,-8.67 1.579,-15.245 8.596,-17.746 6.369,-2.27 12.963,0.44 17.243,7.64 l 6.873,-2.449 2.526,7.088 -6.366,2.269 c 1.51,4.927 1.658,8.546 1.351,11.345 l -8.926,0.817 c 0.128,-2.164 0.606,-6.086 -1.252,-11.301 -1.676,-4.702 -4.244,-5.5 -6.271,-4.777 -2.386,0.85 -3.003,3.926 -3.127,10.902 0.028,9.692 -2.713,14.587 -9.227,16.908 -6.44,2.295 -13.563,-0.306 -17.977,-8.109 l -7.38,2.63 z"
   id="path105" />
				</g>
			</g>
		</g>
		<g
   id="g115">
			<g
   id="g109">
				<path
   style="fill:#94d154"
   d="m 1560.007,1736.467 c -39.036,95.334 -112.651,180.508 -197.914,262.259 l 148.867,119.816 c 105.083,-91.408 192.344,-185.696 220.739,-289.499 -48.232,-37.378 -106.086,-67.785 -171.692,-92.576 z"
   id="path108" />
				<path
   style="fill:#000072"
   d="m 1511.022,2121.712 -152.608,-122.827 1.997,-1.914 c 102.817,-98.584 163.682,-179.209 197.346,-261.423 l 0.896,-2.19 2.212,0.837 c 67.866,25.645 125.845,56.909 172.322,92.927 l 1.284,0.996 -0.43,1.567 c -31.184,114.009 -134.746,215.239 -221.487,290.693 z m -145.251,-123.147 145.129,116.809 c 85.503,-74.512 186.843,-173.957 218.02,-285.405 -45.371,-34.915 -101.726,-65.313 -167.568,-90.391 -33.889,81.582 -94.363,161.65 -195.581,258.987 z"
   id="path109" />
			</g>
			<g
   style="opacity:0.55"
   id="g110">
				<path
   style="fill:#ffffff"
   d="m 1580.002,1778.596 c -39.364,88.665 -109.077,167.395 -190.208,242.472 l -27.71,-22.333 c 85.247,-81.769 158.883,-166.908 197.922,-262.268 65.608,24.803 123.46,55.188 171.705,92.561 -2.472,9.084 -5.428,18.124 -8.804,27.05 -41.579,-29.951 -89.568,-55.53 -142.905,-77.482 z"
   id="path110" />
			</g>
			<g
   id="g111">
				<path
   style="fill:#000072"
   d="m 1510.959,2137.991 c -4.309,0 -8.625,-1.431 -12.19,-4.297 l -148.867,-119.819 c -4.358,-3.506 -6.992,-8.718 -7.236,-14.307 -0.242,-5.586 1.934,-11.008 5.969,-14.878 101.018,-96.858 160.657,-175.686 193.376,-255.591 3.989,-9.746 15.017,-14.548 24.868,-10.823 69.453,26.243 128.914,58.34 176.731,95.396 6.221,4.819 8.921,12.913 6.846,20.503 -32.39,118.411 -138.183,222.014 -226.731,299.041 -3.652,3.173 -8.206,4.775 -12.766,4.775 z m -119.539,-140.625 119.009,95.786 c 78.342,-69.204 166.785,-158.489 198.76,-256.714 -38.777,-28.34 -85.342,-53.516 -138.784,-75.042 -34.087,74.754 -90.32,148.856 -178.985,235.97 z"
   id="path111" />
			</g>
			<g
   id="g112">
				
					
			</g>
			<g
   id="g114">
				<g
   id="g113">
					<path
   style="fill:#000072"
   d="m 1618.024,1831.876 6.751,2.769 c 2.168,-4.675 5.341,-8.768 8.015,-10.829 l 7.437,5.546 c -2.857,2.317 -6.069,5.894 -7.966,10.518 -1.662,4.051 -1.236,7.464 1.608,8.631 2.7,1.107 5.34,-0.467 9.274,-4.998 5.677,-6.555 11.36,-10.288 18.252,-7.461 6.256,2.566 9.351,8.988 7.725,17.205 l 6.75,2.769 -2.856,6.962 -6.253,-2.565 c -2.168,4.675 -4.476,7.467 -6.575,9.344 l -7.187,-5.355 c 1.542,-1.524 4.518,-4.123 6.619,-9.245 1.894,-4.618 0.516,-6.928 -1.475,-7.745 -2.344,-0.961 -4.858,0.914 -9.61,6.023 -6.454,7.23 -11.764,9.041 -18.162,6.416 -6.325,-2.595 -9.887,-9.289 -7.959,-18.044 l -7.248,-2.974 z"
   id="path112" />
				</g>
			</g>
		</g>
		<g
   id="g116">
			<path
   style="fill:#ff83b0"
   d="m 1582.391,2139.424 c -4.647,166.722 -9.116,320.063 -41.447,427.459 -10.607,35.234 -31.354,66.919 -61.142,88.521 -1.994,1.446 -4.014,2.852 -6.061,4.219 -62.67,41.868 -145.397,37.704 -200.997,-13.179 -65.856,-60.269 -85.891,-161.842 -85.91,-260.296 -0.022,-115.867 24.613,-206.294 77.785,-249.155 -72.923,-64.416 -40.108,-132.478 21.877,-124.919 -3.601,-69.007 48.206,-145.594 165.798,-131.531 39.536,4.728 77.677,18.937 108.436,44.221 60.958,50.105 79.95,128.024 21.661,214.66 z"
   id="path115" />
			<path
   style="fill:#000072"
   d="m 1380.681,2690.545 c -39.778,0 -78.943,-14.273 -109.575,-42.31 -57.507,-52.627 -86.677,-140.806 -86.702,-262.085 -0.022,-120.962 26.414,-207.031 76.489,-249.233 -41.472,-37.725 -45.725,-74.79 -35.686,-97.124 9.561,-21.265 31.958,-32.749 58.745,-30.43 -1.16,-37.183 13.071,-72.361 39.297,-96.89 21.543,-20.146 61.487,-42.449 129.336,-34.346 42.292,5.061 80.222,20.537 109.69,44.758 67.866,55.784 76.262,136.98 22.527,217.307 -4.575,164.141 -8.938,319.131 -41.531,427.393 -11.125,36.953 -33.159,68.838 -62.041,89.785 -2.019,1.465 -4.065,2.885 -6.138,4.272 -28.979,19.362 -61.902,28.903 -94.411,28.903 z m -103.458,-676.616 c -21.86,0 -39.653,10.22 -47.583,27.856 -9.497,21.133 -4.873,56.763 36.589,93.389 l 2.158,1.904 -2.241,1.812 c -50.32,40.562 -76.904,126.06 -76.88,247.261 0.022,119.858 28.662,206.831 85.12,258.501 54.011,49.424 135.432,54.761 198.005,12.949 2.019,-1.348 4.016,-2.739 5.981,-4.165 28.027,-20.327 49.421,-51.313 60.244,-87.256 32.449,-107.788 36.77,-262.759 41.345,-426.826 l 0.02,-0.703 0.393,-0.586 c 52.627,-78.222 44.707,-157.258 -21.186,-211.423 -28.75,-23.63 -65.813,-38.735 -107.18,-43.684 -66.033,-7.898 -104.651,13.628 -125.439,33.069 -25.842,24.17 -39.563,59.131 -37.644,95.92 l 0.151,2.891 -2.871,-0.352 c -3.059,-0.372 -6.057,-0.557 -8.982,-0.557 z"
   id="path116" />
		</g>
		<g
   style="opacity:0.3"
   id="g117">
			<path
   style="fill:#000072"
   d="m 1708.482,2158.287 c -5.737,15.46 -13.953,31.357 -24.843,47.595 -4.667,166.703 -9.139,320.037 -41.469,427.429 -10.598,35.246 -31.357,66.944 -61.158,88.529 -1.994,1.458 -3.987,2.869 -6.028,4.23 -62.666,41.858 -145.41,37.677 -201.026,-13.175 -9.334,-8.556 -17.696,-17.891 -25.231,-27.954 42.052,8.459 87.216,-0.048 125.039,-25.328 2.041,-1.362 4.035,-2.771 6.028,-4.23 29.801,-21.585 50.56,-53.283 61.159,-88.48 32.329,-107.392 36.801,-260.774 41.42,-427.478 5.834,1.07 11.765,2.139 17.696,3.208 3.549,0.632 7.098,1.264 10.647,1.848 31.453,5.347 64.075,9.965 97.766,13.806 z"
   id="path117" />
		</g>
		<g
   style="opacity:0.3"
   id="g118">
			<path
   style="fill:#000072"
   d="m 1582.372,2139.424 c -4.619,166.703 -9.091,320.085 -41.42,427.478 -10.599,35.198 -31.358,66.895 -61.159,88.48 -1.993,1.458 -3.987,2.868 -6.028,4.23 -62.228,41.518 -144.146,37.774 -199.714,-12.057 34.42,1.41 69.472,-8.07 99.808,-28.343 2.042,-1.361 4.036,-2.771 6.028,-4.229 29.802,-21.585 50.56,-53.283 61.159,-88.529 32.329,-107.392 36.802,-260.726 41.469,-427.429 58.29,-86.633 39.281,-164.564 -21.683,-214.687 -1.312,-1.069 -2.673,-2.188 -4.035,-3.208 37.969,5.251 74.334,19.3 103.94,43.657 60.965,50.073 79.926,128.004 21.635,214.637 z"
   id="path118" />
		</g>
		<g
   style="opacity:0.55"
   id="g119">
			<path
   style="fill:#ffffff"
   d="m 1263.551,2137.917 c -0.584,-1.118 -1.069,-2.188 -1.507,-3.258 0.827,0.778 1.702,1.556 2.577,2.334 -0.341,0.292 -0.73,0.583 -1.07,0.924 z"
   id="path119" />
		</g>
		<g
   style="opacity:0.55"
   id="g120">
			<path
   style="fill:#ffffff"
   d="m 1263.551,2137.917 c 0.34,0.68 0.68,1.361 1.069,2.09 v 67.576 c -30.287,46.72 -39.962,117.31 -39.913,208.853 0,93.196 17.939,189.212 75.84,250.322 -9.82,-5.591 -19.155,-12.397 -27.809,-20.321 -65.874,-60.283 -85.904,-161.841 -85.904,-260.288 10e-4,-115.074 24.261,-205.061 76.717,-248.232 z"
   id="path120" />
		</g>
		<g
   style="opacity:0.55"
   id="g121">
			<path
   style="fill:#ffffff"
   d="m 1576.781,1939.662 c -26.203,-15.849 -56.005,-25.183 -86.633,-28.829 -117.602,-14.099 -169.377,62.52 -165.779,131.505 -49.151,-5.98 -85.661,40.643 -62.326,92.321 -69.569,-63.687 -36.802,-130.047 24.454,-122.609 -3.597,-68.986 48.226,-145.555 165.779,-131.505 39.573,4.716 77.688,18.911 108.461,44.24 5.739,4.717 11.086,9.675 16.044,14.877 z"
   id="path121" />
		</g>
		<g
   id="g122">
			<path
   style="fill:#000072"
   d="m 1380.678,2707.571 c -43.918,0 -87.195,-15.786 -121.062,-46.782 -61.172,-55.981 -92.202,-148.384 -92.227,-274.634 -0.022,-115.283 23.809,-200.859 69.175,-249.512 -35.952,-39.619 -38.152,-78.74 -26.877,-103.828 10.171,-22.627 31.721,-37.188 57.703,-40.176 2.962,-35.593 18.533,-68.552 44.236,-92.593 24.182,-22.612 68.628,-47.712 142.981,-38.813 45.525,5.447 86.492,22.219 118.474,48.508 74.148,60.95 84.656,148.762 28.596,235.755 -4.563,163.506 -9.194,317.646 -42.112,426.992 -12.192,40.503 -36.465,75.537 -68.347,98.657 -2.19,1.592 -4.417,3.139 -6.67,4.643 -31.868,21.29 -68.084,31.783 -103.87,31.783 z m -103.589,-676.636 c -15.115,0 -26.794,6.406 -31.929,17.827 -7.014,15.605 -2.205,43.149 32.334,73.657 4.295,3.794 6.697,9.287 6.567,15.014 -0.129,5.728 -2.776,11.104 -7.236,14.702 -45.513,36.684 -70.566,119.795 -70.544,234.009 0.017,78.989 13.838,185.776 79.592,245.952 48.21,44.121 121.021,48.804 177.066,11.353 1.836,-1.226 3.652,-2.49 5.444,-3.789 25.032,-18.149 44.187,-45.986 53.94,-78.384 31.797,-105.625 36.089,-259.492 40.63,-422.397 0.103,-3.682 1.248,-7.256 3.303,-10.313 47.93,-71.24 41.414,-140.046 -17.874,-188.782 -26.233,-21.563 -60.259,-35.374 -98.396,-39.934 -47.095,-5.637 -85.764,4.258 -111.794,28.601 -22.168,20.732 -33.933,50.842 -32.275,82.605 0.3,5.737 -1.953,11.313 -6.152,15.234 -4.199,3.916 -9.919,5.781 -15.62,5.083 -2.422,-0.291 -4.778,-0.438 -7.056,-0.438 z"
   id="path122" />
		</g>
		<g
   id="g123">
			<path
   style="fill:#000072"
   d="m 1284.047,2137.883 -25.105,282.629 c -0.358,4.016 -3.901,6.982 -7.916,6.624 -3.796,-0.337 -6.653,-3.552 -6.654,-7.29 l 0.823,-283.743 c 0.032,-10.75 8.772,-19.438 19.521,-19.407 10.749,0.031 19.438,8.77 19.407,19.519 0,0.55 -0.03,1.131 -0.076,1.668 z"
   id="path123" />
		</g>
		<g
   id="g124">
			<circle
   style="fill:#000072"
   cx="2756.5129"
   cy="3064.7419"
   r="22.282"
   id="circle123" />
		</g>
		<g
   id="g125">
			
				<circle
   transform="matrix(0.1602,-0.9871,0.9871,0.1602,-1008.9244,5548.8999)"
   style="fill:#000072"
   cx="2756.5129"
   cy="3367.374"
   id="ellipse124"
   r="22.282" />
		</g>
		<g
   style="opacity:0.3"
   id="g126">
			<path
   style="fill:#000072"
   d="m 1150.374,1217.834 c 149.808,80.22 246.391,-92.1 324.915,-350.114 0,0 80.726,119.919 -106.294,377.582 -10e-4,-10e-4 -123.821,94.153 -218.621,-27.468 z"
   id="path125" />
		</g>
		<g
   style="opacity:0.3"
   id="g127">
			<path
   style="fill:#000072"
   d="m 2728.195,1347.572 c -58.241,71.076 -118.331,92.71 -118.331,92.71 201.755,-244.245 -190.622,-658.742 -190.622,-658.742 0,0 7.487,-2.334 19.884,-6.028 28.731,10.939 54.74,28.1 77.347,49.053 189.894,176.28 293.639,378.181 211.722,523.007 z"
   id="path126" />
		</g>
		<g
   style="opacity:0.25"
   id="g128">
			<path
   style="fill:#ffffff"
   d="m 2019.371,908.778 c 0,53.398 -85.646,69.947 -191.402,69.947 -105.756,0 -191.576,-16.549 -191.576,-69.947 0,-53.398 85.733,-96.686 191.489,-96.686 105.756,0 191.489,43.288 191.489,96.686 z"
   id="path127" />
		</g>
		<g
   style="opacity:0.25"
   id="g129">
			<path
   style="fill:#ffffff"
   d="m 2173.658,971.935 c -12.061,23.989 -40.716,26.067 -69.202,11.745 -28.487,-14.322 -46.017,-39.62 -33.956,-63.609 12.06,-23.989 44.93,-31.825 73.417,-17.503 28.486,14.322 41.802,45.379 29.741,69.367 z"
   id="path128" />
		</g>
		<g
   style="opacity:0.3"
   id="g130">
			<path
   style="fill:#000072"
   d="m 2343.305,2171.899 c -29.218,53.574 -137.728,84.543 -267.775,92.127 39.281,-20.565 52.699,-57.172 56.637,-71.951 76.91,-0.487 148.083,-6.661 211.138,-20.176 z"
   id="path129" />
		</g>
		<g
   style="opacity:0.3"
   id="g131">
			<path
   style="fill:#000072"
   d="m 2470.045,2772.789 h -0.049 c -16.237,-14.682 -38.066,-26.204 -65.534,-32.621 -2.771,-0.632 -5.59,-1.264 -8.508,-1.799 -1.896,-0.389 -3.841,-0.729 -5.785,-0.972 -0.292,-0.049 -0.632,-0.097 -0.924,-0.146 -2.042,-0.34 -4.133,-0.632 -6.223,-0.875 -1.021,-0.146 -2.091,-0.292 -3.16,-0.389 -2.188,-0.243 -4.375,-0.438 -6.612,-0.632 -1.799,-0.146 -3.597,-0.292 -5.446,-0.34 -2.09,-0.146 -4.18,-0.243 -6.32,-0.292 -2.82,-0.146 -5.737,-0.195 -8.702,-0.195 -10.696,0 -21.926,0.583 -33.74,1.896 l -30.094,69.763 -0.097,0.243 -69.763,83.57 v 388.244 c 126.789,49.442 147.499,237.39 -102.093,223.778 h -96.551 l -15.265,-9.042 c 228.494,-27.905 245.654,-201.463 61.596,-201.317 v -276.915 l -65.631,-19.301 -55.908,3.354 c 390.821,-264.323 209.582,-742.75 209.582,-742.75 62.812,-6.612 153.869,-54.839 172.002,-64.708 l 0.681,0.729 c 134.669,143.856 149.254,364.182 142.544,580.717 z"
   id="path130" />
		</g>
		<g
   style="opacity:0.3"
   id="g132">
			<path
   style="fill:#000072"
   d="m 2369.801,2957.091 c 5.055,3.792 9.723,7.535 14.098,11.23 h -164.807 v -78.32 l 69.763,-83.57 0.097,-0.243 c 12.495,-23.481 22.364,-46.914 30.094,-69.763 32.912,-3.597 61.353,-1.896 85.417,3.743 -29.413,26.058 -141.86,136.415 -34.662,216.923 z"
   id="path131" />
		</g>
		<g
   style="opacity:0.3"
   id="g133">
			<path
   style="fill:#000072"
   d="m 1912.083,3424.093 c 0,0.049 0,0.049 0,0.097 -0.972,5.542 -2.09,10.55 -3.208,14.779 -2.528,9.626 -4.91,15.508 -4.91,15.508 0,0 -4.424,4.23 -11.425,10.841 -0.632,0.535 -1.264,1.167 -1.896,1.75 -0.097,0.049 -0.146,0.146 -0.195,0.195 -3.744,3.451 -8.021,7.487 -12.689,11.765 -19.252,15.071 -43.754,23.578 -69.471,22.946 l -180.073,-4.375 c 189.017,-28.294 255.183,-175.454 39.379,-211.478 V 2985.92 l 171.905,38.309 -4.036,267.094 c 81.287,27.225 83.378,93.585 76.619,132.77 z"
   id="path132" />
		</g>
		<g
   style="opacity:0.3"
   id="g134">
			<path
   style="fill:#000072"
   d="m 2048.953,2264.026 c 0,0 11.532,63.784 -29.075,99.435 l 24.214,372.963 -74.544,212.045 -52.41,-38.473 52.41,-118.718 -18.912,-495.464 c 27.844,-0.295 44.909,-10.775 52.821,-29.905 z"
   id="path133" />
		</g>
	</g>
</g>
</svg>
